<?xml version="1.0" standalone="no"?><!DOCTYPE svg PUBLIC "-//W3C//DTD SVG 1.1//EN" "http://www.w3.org/Graphics/SVG/1.1/DTD/svg11.dtd"><svg height="1024" legacy-metrics="false" node-id="1" sillyvg="true" template-height="1024" template-width="1024" version="1.1" viewBox="0 0 1024 1024" width="1024" xmlns="http://www.w3.org/2000/svg" xmlns:xlink="http://www.w3.org/1999/xlink"><defs node-id="56"><linearGradient gradientUnits="objectBoundingBox" id="linearGradient-1" node-id="5" x1="0.49614564" x2="0.5063883" y1="-0.16281228" y2="1.593112"><stop offset="0" stop-color="#ffe1e1" stop-opacity="0"></stop><stop offset="1" stop-color="#ffe1e0"></stop></linearGradient><linearGradient gradientUnits="objectBoundingBox" id="linearGradient-2" node-id="8" x1="0.81022924" x2="0.31281" y1="1.4390941" y2="-0.0041952915"><stop offset="0" stop-color="#ffbebd"></stop><stop offset="1" stop-color="#fff6f5"></stop></linearGradient><linearGradient gradientUnits="objectBoundingBox" id="linearGradient-3" node-id="11" x1="0.81022924" x2="0.31281" y1="1.4353688" y2="-0.0021951883"><stop offset="0" stop-color="#ffbebd"></stop><stop offset="1" stop-color="#fff6f5"></stop></linearGradient><linearGradient gradientUnits="objectBoundingBox" id="linearGradient-4" node-id="14" x1="0.81022924" x2="0.31281" y1="1.4262744" y2="0.0026875737"><stop offset="0" stop-color="#ffbebd"></stop><stop offset="1" stop-color="#fff6f5"></stop></linearGradient><linearGradient gradientUnits="objectBoundingBox" id="linearGradient-5" node-id="17" x1="-0.006382429" x2="1.0073812" y1="0.302" y2="0.698"><stop offset="0" stop-color="#ffe0e0"></stop><stop offset="1" stop-color="#ff8888"></stop></linearGradient><linearGradient gradientUnits="objectBoundingBox" id="linearGradient-6" node-id="20" x1="0.128" x2="0.809" y1="0.14737526" y2="0.82565343"><stop offset="0" stop-color="#fff0f0"></stop><stop offset="1" stop-color="#ffb9b9"></stop></linearGradient><linearGradient gradientUnits="objectBoundingBox" id="linearGradient-7" node-id="23" x1="0.12760413" x2="0.80932885" y1="0.147" y2="0.826"><stop offset="0" stop-color="#fff0f0"></stop><stop offset="1" stop-color="#ffb9b9"></stop></linearGradient><linearGradient gradientUnits="objectBoundingBox" id="linearGradient-8" node-id="26" x1="0.128" x2="0.809" y1="0.14737526" y2="0.82565343"><stop offset="0" stop-color="#fff0f0"></stop><stop offset="1" stop-color="#ffb9b9"></stop></linearGradient><linearGradient gradientUnits="objectBoundingBox" id="linearGradient-9" node-id="29" x1="0.128" x2="0.809" y1="0.14737526" y2="0.82565343"><stop offset="0" stop-color="#fff0f0"></stop><stop offset="1" stop-color="#ffb9b9"></stop></linearGradient></defs><g node-id="126"><path d="M 527.00 812.00 L 540.60 811.67 L 553.94 810.74 L 567.04 809.23 L 579.91 807.13 L 592.58 804.45 L 605.18 801.17 L 617.49 797.38 L 629.52 793.08 L 641.27 788.26 L 652.78 782.93 L 664.06 777.07 L 675.01 770.77 L 685.62 764.02 L 695.90 756.83 L 705.88 749.17 L 715.52 741.08 L 724.76 732.61 L 733.61 723.76 L 742.08 714.52 L 750.17 704.88 L 757.83 694.90 L 765.02 684.62 L 771.77 674.01 L 778.07 663.06 L 783.93 651.78 L 789.26 640.27 L 794.08 628.52 L 798.38 616.49 L 802.17 604.18 L 805.45 591.58 L 808.13 578.91 L 810.23 566.04 L 811.74 552.94 L 812.67 539.60 L 813.00 526.00 L 812.67 512.40 L 811.74 499.06 L 810.23 485.96 L 808.13 473.09 L 805.45 460.42 L 802.17 447.82 L 798.38 435.51 L 794.08 423.48 L 789.26 411.73 L 783.93 400.22 L 778.07 388.94 L 771.77 377.99 L 765.02 367.38 L 757.83 357.10 L 750.17 347.12 L 742.08 337.48 L 733.61 328.24 L 724.76 319.39 L 715.52 310.92 L 705.88 302.83 L 695.90 295.17 L 685.62 287.98 L 675.01 281.23 L 664.06 274.93 L 652.78 269.07 L 641.27 263.74 L 629.52 258.92 L 617.49 254.62 L 605.18 250.83 L 592.58 247.55 L 579.91 244.87 L 567.04 242.77 L 553.94 241.26 L 540.60 240.33 L 527.00 240.00 L 513.40 240.33 L 500.06 241.26 L 486.96 242.77 L 474.09 244.87 L 461.42 247.55 L 448.82 250.83 L 436.51 254.62 L 424.48 258.92 L 412.73 263.74 L 401.22 269.07 L 389.94 274.93 L 378.99 281.23 L 368.38 287.98 L 358.10 295.17 L 348.12 302.83 L 338.48 310.92 L 329.24 319.39 L 320.39 328.24 L 311.92 337.48 L 303.83 347.12 L 296.17 357.10 L 288.98 367.38 L 282.23 377.99 L 275.93 388.94 L 270.07 400.22 L 264.74 411.73 L 259.92 423.48 L 255.62 435.51 L 251.83 447.82 L 248.55 460.42 L 245.87 473.09 L 243.77 485.96 L 242.26 499.06 L 241.33 512.40 L 241.00 526.00 L 241.33 539.60 L 242.26 552.94 L 243.77 566.04 L 245.87 578.91 L 248.55 591.58 L 251.83 604.18 L 255.62 616.49 L 259.92 628.52 L 264.74 640.27 L 270.07 651.78 L 275.93 663.06 L 282.23 674.01 L 288.98 684.62 L 296.17 694.90 L 303.83 704.88 L 311.92 714.52 L 320.39 723.76 L 329.24 732.61 L 338.48 741.08 L 348.12 749.17 L 358.10 756.83 L 368.38 764.02 L 378.99 770.77 L 389.94 777.07 L 401.22 782.93 L 412.73 788.26 L 424.48 793.08 L 436.51 797.38 L 448.82 801.17 L 461.42 804.45 L 474.09 807.13 L 486.96 809.23 L 500.06 810.74 L 513.40 811.67 L 527.00 812.00 Z" fill="url(#linearGradient-1)" fill-rule="nonzero" group-id="1" id="路径" node-id="34" stroke-linecap="butt" stroke-width="1" target-height="572" target-width="572" target-x="241" target-y="240"></path><path d="M 858.00 336.86 L 857.74 341.24 L 856.97 345.47 L 855.71 349.59 L 853.96 353.53 L 851.76 357.22 L 849.10 360.68 L 846.03 363.80 L 842.68 366.47 L 839.02 368.73 L 835.12 370.53 L 831.04 371.85 L 826.76 372.69 L 821.99 373.00 L 817.89 373.00 L 806.89 373.00 L 790.96 373.00 L 772.08 373.00 L 752.21 373.00 L 733.33 373.00 L 717.40 373.00 L 706.40 373.00 L 702.29 373.00 L 698.40 372.83 L 694.54 372.36 L 690.44 371.44 L 686.51 370.19 L 682.73 368.58 L 679.09 366.63 L 675.65 364.35 L 672.44 361.78 L 669.47 358.91 L 666.71 355.72 L 664.27 352.29 L 662.18 348.71 L 660.44 344.98 L 659.04 341.09 L 657.99 337.08 L 657.32 333.02 L 657.02 328.88 L 657.09 324.66 L 657.56 320.47 L 658.39 316.41 L 659.58 312.47 L 661.13 308.63 L 663.03 304.95 L 665.23 301.48 L 667.76 298.20 L 670.62 295.11 L 673.76 292.31 L 677.08 289.85 L 680.59 287.72 L 684.30 285.90 L 688.16 284.43 L 692.11 283.33 L 696.17 282.59 L 700.35 282.22 L 702.72 277.57 L 705.41 273.19 L 708.43 269.06 L 711.79 265.18 L 715.44 261.57 L 719.36 258.28 L 723.54 255.31 L 728.01 252.65 L 732.69 250.37 L 737.46 248.49 L 742.34 247.02 L 747.35 245.94 L 752.44 245.26 L 757.53 245.00 L 762.65 245.16 L 767.82 245.73 L 772.92 246.73 L 777.85 248.11 L 782.64 249.88 L 787.29 252.04 L 791.75 254.57 L 795.98 257.44 L 799.98 260.66 L 803.77 264.23 L 807.25 268.11 L 810.36 272.20 L 813.12 276.50 L 815.55 281.04 L 817.60 285.75 L 819.26 290.60 L 820.53 295.58 L 821.41 300.73 L 821.68 300.73 L 821.96 300.73 L 826.68 301.03 L 831.26 301.94 L 835.74 303.46 L 839.99 305.56 L 843.88 308.16 L 847.44 311.29 L 850.56 314.86 L 853.16 318.76 L 855.26 323.02 L 856.78 327.52 L 857.69 332.12 L 858.00 336.86 Z" fill="url(#linearGradient-2)" fill-rule="nonzero" group-id="1" id="路径" node-id="35" stroke-linecap="butt" stroke-width="1" target-height="127.996155" target-width="200.9784" target-x="657.0216" target-y="245.00385"></path><path d="M 241.00 313.82 L 241.24 317.42 L 241.93 320.87 L 243.06 324.22 L 244.62 327.40 L 246.58 330.33 L 248.94 333.04 L 251.65 335.41 L 254.57 337.37 L 257.74 338.93 L 261.08 340.07 L 264.53 340.76 L 268.12 341.00 L 271.99 341.00 L 282.18 341.00 L 296.60 341.00 L 313.13 341.00 L 329.66 341.00 L 344.08 341.00 L 354.28 341.00 L 358.15 341.00 L 362.57 340.68 L 366.83 339.83 L 370.95 338.42 L 374.86 336.50 L 378.48 334.10 L 381.84 331.20 L 384.79 327.88 L 387.24 324.29 L 389.22 320.40 L 390.68 316.29 L 391.61 312.04 L 391.99 307.61 L 391.79 303.17 L 391.05 298.89 L 389.76 294.72 L 387.95 290.75 L 385.65 287.06 L 382.84 283.62 L 379.61 280.57 L 376.09 278.02 L 372.26 275.94 L 368.20 274.36 L 363.99 273.33 L 359.58 272.82 L 357.14 268.23 L 354.27 263.99 L 350.96 260.08 L 347.25 256.53 L 343.19 253.42 L 338.76 250.71 L 334.06 248.51 L 329.23 246.84 L 324.23 245.70 L 319.14 245.10 L 314.03 245.05 L 308.87 245.55 L 303.79 246.61 L 298.92 248.18 L 294.24 250.27 L 289.81 252.85 L 285.69 255.88 L 281.86 259.39 L 278.43 263.29 L 275.48 267.48 L 272.99 271.96 L 270.99 276.69 L 269.51 281.60 L 268.54 286.70 L 268.34 286.70 L 268.14 286.70 L 264.55 286.94 L 261.11 287.63 L 257.77 288.76 L 254.60 290.32 L 251.68 292.27 L 248.97 294.64 L 246.60 297.34 L 244.65 300.27 L 243.08 303.44 L 241.94 306.78 L 241.25 310.23 L 241.00 313.82 Z" fill="url(#linearGradient-3)" fill-rule="nonzero" group-id="1" id="路径" node-id="36" stroke-linecap="butt" stroke-width="1" target-height="95.95456" target-width="150.99243" target-x="241" target-y="245.04544"></path><path d="M 167.00 739.15 L 167.26 743.48 L 168.03 747.68 L 169.30 751.76 L 171.04 755.67 L 173.24 759.33 L 175.90 762.77 L 178.97 765.85 L 182.31 768.50 L 185.97 770.74 L 189.86 772.53 L 193.93 773.84 L 198.21 774.67 L 200.57 774.92 L 202.95 775.00 L 207.05 775.00 L 218.03 775.00 L 233.94 775.00 L 252.79 775.00 L 272.63 775.00 L 291.48 775.00 L 307.38 775.00 L 318.37 775.00 L 322.46 775.00 L 326.36 774.84 L 330.24 774.36 L 334.36 773.47 L 338.31 772.24 L 342.10 770.66 L 345.76 768.73 L 349.23 766.47 L 352.45 763.93 L 355.45 761.08 L 358.22 757.91 L 360.68 754.50 L 362.78 750.94 L 364.53 747.23 L 365.94 743.35 L 367.00 739.36 L 367.67 735.31 L 367.98 731.19 L 367.90 726.99 L 367.43 722.81 L 366.60 718.77 L 365.40 714.85 L 363.84 711.02 L 361.93 707.36 L 359.71 703.90 L 357.17 700.65 L 354.29 697.58 L 351.13 694.80 L 347.79 692.36 L 344.26 690.25 L 340.53 688.46 L 336.65 687.02 L 332.69 685.94 L 328.61 685.23 L 324.41 684.88 L 322.04 680.27 L 319.35 675.93 L 316.34 671.84 L 312.98 667.99 L 309.33 664.42 L 305.42 661.16 L 301.24 658.22 L 296.78 655.58 L 292.11 653.32 L 287.35 651.46 L 282.47 650.00 L 277.47 648.93 L 272.40 648.26 L 267.31 648.00 L 262.20 648.16 L 257.04 648.72 L 251.95 649.71 L 247.02 651.08 L 242.24 652.84 L 237.60 654.98 L 233.14 657.49 L 228.92 660.33 L 224.93 663.52 L 221.15 667.06 L 217.67 670.91 L 214.56 674.96 L 211.80 679.22 L 209.38 683.72 L 207.33 688.39 L 205.67 693.19 L 204.40 698.13 L 203.51 703.23 L 203.23 703.23 L 202.95 703.23 L 198.23 703.54 L 193.66 704.45 L 189.18 705.97 L 184.94 708.06 L 181.06 710.65 L 177.51 713.76 L 174.40 717.30 L 171.81 721.18 L 169.72 725.41 L 168.21 729.87 L 167.30 734.44 L 167.00 739.15 Z" fill="url(#linearGradient-4)" fill-rule="nonzero" group-id="1" id="路径" node-id="37" stroke-linecap="butt" stroke-width="1" target-height="126.99628" target-width="200.97821" target-x="167" target-y="648.0038"></path><g node-id="128"><path d="M 754.14 462.19 L 754.03 460.67 L 754.43 459.34 L 755.25 458.22 L 756.39 457.43 L 757.74 457.06 L 759.25 457.20 L 761.40 457.80 L 766.52 459.24 L 772.63 460.96 L 777.75 462.40 L 779.90 463.00 L 781.26 463.67 L 782.22 464.68 L 782.78 465.95 L 782.89 467.33 L 782.54 468.68 L 781.66 469.93 L 780.07 471.48 L 776.26 475.20 L 771.72 479.63 L 767.91 483.35 L 766.32 484.90 L 765.05 485.75 L 763.69 486.07 L 762.32 485.92 L 761.06 485.33 L 760.07 484.35 L 759.43 482.97 L 758.88 480.81 L 757.57 475.66 L 756.00 469.50 L 754.69 464.35 L 754.14 462.19 Z" fill="#ffbebd" fill-rule="nonzero" group-id="1,3" node-id="120" stroke-linecap="butt" stroke-width="1" target-height="29.016266" target-width="28.862915" target-x="754.03125" target-y="457.05646"></path></g><g node-id="129"><path d="M 277.46 462.19 L 277.36 460.67 L 277.76 459.34 L 278.58 458.22 L 279.72 457.43 L 281.06 457.06 L 282.58 457.20 L 284.72 457.80 L 289.84 459.24 L 295.96 460.96 L 301.08 462.40 L 303.22 463.00 L 304.59 463.67 L 305.54 464.68 L 306.10 465.95 L 306.22 467.33 L 305.87 468.68 L 304.99 469.93 L 303.39 471.48 L 299.59 475.20 L 295.04 479.63 L 291.24 483.35 L 289.64 484.90 L 288.38 485.75 L 287.02 486.07 L 285.64 485.92 L 284.39 485.33 L 283.40 484.35 L 282.76 482.97 L 282.21 480.81 L 280.89 475.66 L 279.33 469.50 L 278.01 464.35 L 277.46 462.19 Z" fill="#ffbebd" fill-rule="nonzero" group-id="1,4" node-id="124" stroke-linecap="butt" stroke-width="1" target-height="29.016266" target-width="28.862854" target-x="277.35776" target-y="457.05646"></path></g><path d="M 438.24 215.75 L 438.97 214.08 L 440.07 212.94 L 441.47 212.23 L 443.00 212.00 L 444.53 212.23 L 445.93 212.94 L 447.03 214.08 L 447.76 215.75 L 448.18 217.50 L 449.19 221.67 L 450.39 226.65 L 451.40 230.82 L 451.82 232.57 L 452.32 233.83 L 453.12 234.88 L 454.17 235.68 L 455.43 236.18 L 457.18 236.60 L 461.35 237.61 L 466.33 238.81 L 470.50 239.82 L 472.25 240.24 L 473.92 240.97 L 475.06 242.07 L 475.77 243.47 L 476.00 245.00 L 475.77 246.53 L 475.06 247.93 L 473.92 249.03 L 472.25 249.76 L 470.50 250.18 L 466.33 251.19 L 461.35 252.39 L 457.18 253.40 L 455.43 253.82 L 454.17 254.32 L 453.12 255.12 L 452.32 256.17 L 451.82 257.43 L 451.40 259.18 L 450.39 263.35 L 449.19 268.33 L 448.18 272.50 L 447.76 274.25 L 447.03 275.92 L 445.93 277.06 L 444.53 277.77 L 443.00 278.00 L 441.47 277.77 L 440.07 277.06 L 438.97 275.92 L 438.24 274.25 L 437.82 272.50 L 436.81 268.33 L 435.61 263.35 L 434.60 259.18 L 434.18 257.43 L 433.68 256.17 L 432.88 255.12 L 431.83 254.32 L 430.57 253.82 L 428.82 253.40 L 424.65 252.39 L 419.67 251.19 L 415.50 250.18 L 413.75 249.76 L 412.08 249.03 L 410.94 247.93 L 410.23 246.53 L 410.00 245.00 L 410.23 243.47 L 410.94 242.07 L 412.08 240.97 L 413.75 240.24 L 415.50 239.82 L 419.67 238.81 L 424.65 237.61 L 428.82 236.60 L 430.57 236.18 L 431.83 235.68 L 432.88 234.88 L 433.68 233.83 L 434.18 232.57 L 434.60 230.82 L 435.61 226.65 L 436.81 221.67 L 437.82 217.50 L 438.24 215.75 Z" fill="#ffbebd" fill-rule="nonzero" group-id="1" id="路径" node-id="42" stroke-linecap="butt" stroke-width="1" target-height="66" target-width="66" target-x="410" target-y="212"></path><path d="M 537.50 775.00 L 540.15 774.75 L 542.57 774.09 L 544.82 773.02 L 546.85 771.58 L 548.58 769.85 L 550.02 767.82 L 551.09 765.57 L 551.75 763.15 L 552.00 760.50 L 551.75 757.85 L 551.09 755.43 L 550.02 753.18 L 548.58 751.15 L 546.85 749.42 L 544.82 747.98 L 542.57 746.91 L 540.15 746.25 L 537.50 746.00 L 534.85 746.25 L 532.43 746.91 L 530.18 747.98 L 528.15 749.42 L 526.42 751.15 L 524.98 753.18 L 523.91 755.43 L 523.25 757.85 L 523.00 760.50 L 523.25 763.15 L 523.91 765.57 L 524.98 767.82 L 526.42 769.85 L 528.15 771.58 L 530.18 773.02 L 532.43 774.09 L 534.85 774.75 L 537.50 775.00 Z M 543.36 754.64 L 544.71 756.38 L 545.51 758.31 L 545.79 760.50 L 545.51 762.69 L 544.71 764.62 L 543.36 766.36 L 541.62 767.71 L 539.69 768.51 L 537.50 768.79 L 535.31 768.51 L 533.38 767.71 L 531.64 766.36 L 530.29 764.62 L 529.49 762.69 L 529.21 760.50 L 529.49 758.31 L 530.29 756.38 L 531.64 754.64 L 533.38 753.29 L 535.31 752.49 L 537.50 752.21 L 539.69 752.49 L 541.62 753.29 L 543.36 754.64 Z" fill="#ffbebd" fill-rule="evenodd" group-id="1" id="形状" node-id="43" stroke-linecap="butt" stroke-width="1" target-height="29" target-width="29" target-x="523" target-y="746"></path><path d="M 752.24 667.75 L 752.97 666.08 L 754.07 664.94 L 755.47 664.23 L 757.00 664.00 L 758.53 664.23 L 759.93 664.94 L 761.03 666.08 L 761.76 667.75 L 762.18 669.50 L 763.19 673.67 L 764.39 678.65 L 765.40 682.82 L 765.82 684.57 L 766.32 685.83 L 767.12 686.88 L 768.17 687.68 L 769.43 688.18 L 771.18 688.60 L 775.35 689.61 L 780.33 690.81 L 784.50 691.82 L 786.25 692.24 L 787.92 692.97 L 789.06 694.07 L 789.77 695.47 L 790.00 697.00 L 789.77 698.53 L 789.06 699.93 L 787.92 701.03 L 786.25 701.76 L 784.50 702.18 L 780.33 703.19 L 775.35 704.39 L 771.18 705.40 L 769.43 705.82 L 768.17 706.32 L 767.12 707.12 L 766.32 708.17 L 765.82 709.43 L 765.40 711.18 L 764.39 715.35 L 763.19 720.33 L 762.18 724.50 L 761.76 726.25 L 761.03 727.92 L 759.93 729.06 L 758.53 729.77 L 757.00 730.00 L 755.47 729.77 L 754.07 729.06 L 752.97 727.92 L 752.24 726.25 L 751.82 724.50 L 750.81 720.33 L 749.61 715.35 L 748.60 711.18 L 748.18 709.43 L 747.68 708.17 L 746.88 707.12 L 745.83 706.32 L 744.57 705.82 L 742.82 705.40 L 738.65 704.39 L 733.67 703.19 L 729.50 702.18 L 727.75 701.76 L 726.08 701.03 L 724.94 699.93 L 724.23 698.53 L 724.00 697.00 L 724.23 695.47 L 724.94 694.07 L 726.08 692.97 L 727.75 692.24 L 729.50 691.82 L 733.67 690.81 L 738.65 689.61 L 742.82 688.60 L 744.57 688.18 L 745.83 687.68 L 746.88 686.88 L 747.68 685.83 L 748.18 684.57 L 748.60 682.82 L 749.61 678.65 L 750.81 673.67 L 751.82 669.50 L 752.24 667.75 Z" fill="#ffbebd" fill-rule="nonzero" group-id="1" id="路径" node-id="44" stroke-linecap="butt" stroke-width="1" target-height="66" target-width="66" target-x="724" target-y="664"></path><path d="M 783.00 595.50 L 782.80 597.60 L 782.28 599.52 L 781.43 601.30 L 780.29 602.92 L 778.92 604.29 L 777.30 605.43 L 775.52 606.28 L 773.60 606.80 L 771.50 607.00 L 769.40 606.80 L 767.48 606.28 L 765.70 605.43 L 764.08 604.29 L 762.71 602.92 L 761.57 601.30 L 760.72 599.52 L 760.20 597.60 L 760.00 595.50 L 760.20 593.40 L 760.72 591.48 L 761.57 589.70 L 762.71 588.08 L 764.08 586.71 L 765.70 585.57 L 767.48 584.72 L 769.40 584.20 L 771.50 584.00 L 773.60 584.20 L 775.52 584.72 L 777.30 585.57 L 778.92 586.71 L 780.29 588.08 L 781.43 589.70 L 782.28 591.48 L 782.80 593.40 L 783.00 595.50 Z" fill="none" group-id="1" id="椭圆形" node-id="45" stroke="#fc9999" stroke-linecap="butt" stroke-width="2.482868" target-height="23" target-width="23" target-x="760" target-y="584"></path></g><g node-id="127"><g node-id="130"><g node-id="131"><path d="M 628.62 295.78 L 629.51 295.97 L 630.25 296.51 L 630.69 297.31 L 630.76 298.23 L 627.29 361.92 L 625.28 398.41 L 647.46 406.23 L 648.30 406.84 L 648.81 407.75 L 648.89 408.79 L 648.53 409.77 L 613.94 468.15 L 582.15 521.81 L 581.43 522.57 L 580.43 522.89 L 579.54 522.70 L 578.80 522.15 L 578.35 521.35 L 578.29 520.43 L 581.78 456.77 L 583.78 420.28 L 561.57 412.45 L 560.74 411.84 L 560.23 410.93 L 560.15 409.90 L 560.50 408.93 L 595.09 350.54 L 626.89 296.83 L 627.62 296.08 L 628.62 295.78 L 628.62 295.78 Z" fill="url(#linearGradient-5)" fill-rule="nonzero" group-id="2,5,6" id="路径_8491" node-id="49" stroke-linecap="butt" stroke-width="1" target-height="227.10486" target-width="88.74609" target-x="560.14777" target-y="295.781"></path></g><g node-id="132"><path d="M 640.61 445.99 L 607.55 501.45 L 615.01 504.96 L 622.26 508.80 L 629.31 512.97 L 636.17 517.46 L 642.82 522.26 L 649.23 527.36 L 655.40 532.76 L 661.35 538.47 L 667.54 544.98 L 673.38 551.76 L 678.89 558.81 L 684.07 566.15 L 728.00 518.85 L 720.91 509.71 L 713.44 500.97 L 705.59 492.64 L 697.35 484.70 L 688.71 477.14 L 679.72 470.00 L 670.43 463.33 L 660.82 457.10 L 650.88 451.32 L 640.61 445.99 Z" fill="url(#linearGradient-6)" fill-rule="nonzero" group-id="2,5,7" id="路径_8498" node-id="51" stroke-linecap="butt" stroke-width="1" target-height="120.16443" target-width="120.44861" target-x="607.5514" target-y="445.98828"></path><path d="M 557.74 634.77 L 553.65 632.47 L 549.42 630.61 L 545.01 629.19 L 540.48 628.21 L 535.89 627.69 L 531.21 627.63 L 525.98 628.22 L 521.00 629.27 L 516.25 630.77 L 511.71 632.71 L 507.34 635.09 L 503.29 637.81 L 499.53 640.89 L 496.05 644.32 L 492.91 648.07 L 490.14 652.06 L 487.76 656.31 L 485.74 660.85 L 484.16 665.54 L 483.05 670.39 L 482.41 675.43 L 482.23 680.69 L 482.40 685.64 L 483.04 690.45 L 484.15 695.13 L 485.74 699.72 L 487.78 704.12 L 490.23 708.26 L 493.10 712.17 L 496.43 715.85 L 500.11 719.17 L 504.03 722.04 L 508.17 724.48 L 512.58 726.51 L 517.17 728.09 L 521.86 729.20 L 526.67 729.83 L 531.63 729.99 L 531.95 729.99 L 537.11 729.38 L 542.02 728.32 L 546.70 726.83 L 551.19 724.91 L 555.50 722.56 L 559.51 719.87 L 563.22 716.84 L 566.67 713.45 L 569.80 709.76 L 572.54 705.83 L 574.93 701.64 L 576.95 697.17 L 578.54 692.55 L 579.68 687.76 L 580.36 682.79 L 580.59 677.61 L 580.59 677.11 L 580.31 671.42 L 579.42 665.92 L 577.93 660.59 L 575.85 655.45 L 573.24 650.62 L 570.09 646.06 L 566.45 641.88 L 562.34 638.12 L 557.74 634.77 Z" fill="url(#linearGradient-7)" fill-rule="nonzero" group-id="2,5,7" id="路径_8499" node-id="52" stroke-linecap="butt" stroke-width="1" target-height="102.36127" target-width="98.353516" target-x="482.2345" target-y="627.62854"></path><path d="M 587.39 535.29 L 560.70 580.09 L 563.50 528.23 L 555.37 526.84 L 547.22 525.93 L 539.03 525.50 L 530.79 525.54 L 520.92 526.34 L 511.27 527.73 L 501.82 529.73 L 492.54 532.32 L 483.43 535.50 L 474.61 539.22 L 466.07 543.47 L 457.78 548.27 L 449.82 553.58 L 442.23 559.37 L 435.00 565.63 L 428.12 572.40 L 421.70 579.58 L 415.74 587.18 L 410.22 595.21 L 405.15 603.71 L 451.14 649.62 L 453.46 643.79 L 456.15 638.17 L 459.21 632.73 L 462.63 627.51 L 466.38 622.53 L 470.49 617.79 L 474.53 613.62 L 478.79 609.78 L 483.26 606.26 L 487.96 603.03 L 492.87 600.13 L 497.92 597.56 L 503.13 595.33 L 508.51 593.44 L 514.00 591.91 L 519.58 590.75 L 525.26 589.95 L 531.05 589.52 L 536.77 589.53 L 542.44 589.92 L 548.07 590.70 L 553.67 591.88 L 559.96 593.68 L 565.89 595.95 L 571.58 598.64 L 577.05 601.76 L 582.26 605.30 L 587.18 609.23 L 591.82 613.55 L 596.01 618.06 L 599.84 622.82 L 603.32 627.85 L 606.44 633.11 L 609.17 638.58 L 611.52 644.27 L 657.16 595.12 L 652.95 588.46 L 648.43 582.09 L 643.59 576.00 L 638.43 570.19 L 632.95 564.66 L 627.21 559.46 L 621.19 554.58 L 614.89 550.01 L 608.36 545.79 L 601.60 541.93 L 594.62 538.43 L 587.39 535.29 L 587.39 535.29 Z" fill="url(#linearGradient-8)" fill-rule="nonzero" group-id="2,5,7" id="路径_8500" node-id="53" stroke-linecap="butt" stroke-width="1" target-height="124.1239" target-width="252.00394" target-x="405.15402" target-y="525.4967"></path><path d="M 530.61 486.78 L 539.41 486.69 L 548.16 487.03 L 556.89 487.80 L 565.61 489.00 L 569.09 424.62 L 559.42 423.57 L 549.75 422.92 L 540.05 422.67 L 530.33 422.81 L 517.61 423.67 L 505.07 425.15 L 492.69 427.25 L 480.46 429.98 L 468.36 433.32 L 456.52 437.24 L 444.90 441.74 L 433.51 446.82 L 422.38 452.47 L 411.57 458.66 L 401.07 465.40 L 390.86 472.69 L 381.04 480.48 L 371.61 488.77 L 362.57 497.58 L 353.90 506.92 L 346.81 515.15 L 340.08 523.66 L 333.69 532.44 L 377.99 576.65 L 383.08 569.00 L 388.50 561.61 L 394.25 554.47 L 400.34 547.59 L 406.81 540.82 L 413.54 534.43 L 420.54 528.42 L 427.82 522.78 L 435.38 517.51 L 443.15 512.63 L 451.14 508.16 L 459.35 504.07 L 467.76 500.40 L 476.32 497.15 L 485.04 494.32 L 493.94 491.92 L 502.94 489.96 L 512.05 488.45 L 521.27 487.39 L 530.61 486.78 Z" fill="url(#linearGradient-9)" fill-rule="nonzero" group-id="2,5,7" id="路径_8501" node-id="54" stroke-linecap="butt" stroke-width="1" target-height="153.97916" target-width="235.39499" target-x="333.69406" target-y="422.66745"></path></g></g></g></svg>