<?xml version="1.0" standalone="no"?><!DOCTYPE svg PUBLIC "-//W3C//DTD SVG 1.1//EN" "http://www.w3.org/Graphics/SVG/1.1/DTD/svg11.dtd"><svg height="1024" legacy-metrics="false" node-id="1" sillyvg="true" template-height="1024" template-width="1024" version="1.1" viewBox="0 0 1024 1024" width="1024" xmlns="http://www.w3.org/2000/svg" xmlns:xlink="http://www.w3.org/1999/xlink"><defs node-id="60"><linearGradient gradientUnits="objectBoundingBox" id="linearGradient-1" node-id="5" x1="0.49614564" x2="0.5063883" y1="-0.16281228" y2="1.593112"><stop offset="0" stop-color="#ffffff" stop-opacity="0"></stop><stop offset="1" stop-color="#8ee2f4"></stop></linearGradient><linearGradient gradientUnits="objectBoundingBox" id="linearGradient-2" node-id="8" x1="-0.0011325673" x2="1.0004997" y1="0.23317547" y2="0.993419"><stop offset="0" stop-color="#90e3f5"></stop><stop offset="1" stop-color="#41acc3"></stop></linearGradient><linearGradient gradientUnits="objectBoundingBox" id="linearGradient-3" node-id="11" x1="0.5" x2="0.5" y1="-0.00000000000000003061617" y2="1"><stop offset="0" stop-color="#ccf6ff"></stop><stop offset="1" stop-color="#b9ecf8"></stop></linearGradient><linearGradient gradientUnits="objectBoundingBox" id="linearGradient-4" node-id="14" x1="0.5" x2="0.5" y1="-0.00000000000000003061617" y2="1"><stop offset="0" stop-color="#92ddec"></stop><stop offset="1" stop-color="#6ccfe3"></stop></linearGradient><linearGradient gradientUnits="objectBoundingBox" id="linearGradient-5" node-id="17" x1="-0.028661123" x2="1.4122814" y1="0.7498778" y2="0.7787579"><stop offset="0" stop-color="#77d3e6"></stop><stop offset="0.39223683" stop-color="#77d3e6"></stop><stop offset="1" stop-color="#e9fcff"></stop></linearGradient><linearGradient gradientUnits="objectBoundingBox" id="linearGradient-6" node-id="21" x1="0.27639142" x2="0.8170935" y1="0.55213547" y2="0.695824"><stop offset="0" stop-color="#e9fbff"></stop><stop offset="1" stop-color="#bcf3ff"></stop></linearGradient><linearGradient gradientUnits="objectBoundingBox" id="linearGradient-7" node-id="24" x1="-0.0011325673" x2="1.0004997" y1="0.2519648" y2="0.9586732"><stop offset="0" stop-color="#90e3f5"></stop><stop offset="1" stop-color="#65c8de"></stop></linearGradient><linearGradient gradientUnits="objectBoundingBox" id="linearGradient-8" node-id="27" x1="-0.0011325673" x2="1.0004997" y1="0.23009102" y2="0.9991228"><stop offset="0" stop-color="#90e3f5"></stop><stop offset="1" stop-color="#65c8de"></stop></linearGradient><linearGradient gradientUnits="objectBoundingBox" id="linearGradient-9" node-id="30" x1="-0.0011325673" x2="1.0004997" y1="0.23078592" y2="0.9978378"><stop offset="0" stop-color="#90e3f5"></stop><stop offset="1" stop-color="#65c8de"></stop></linearGradient><linearGradient gradientUnits="objectBoundingBox" id="linearGradient-10" node-id="33" x1="-0.0011325673" x2="1.0004997" y1="0.23078592" y2="0.9978378"><stop offset="0" stop-color="#90e3f5"></stop><stop offset="1" stop-color="#65c8de"></stop></linearGradient></defs><g node-id="153"><path d="M 526.00 799.00 L 539.22 798.68 L 552.19 797.78 L 564.92 796.30 L 577.43 794.26 L 589.74 791.66 L 602.00 788.48 L 613.96 784.79 L 625.65 780.61 L 637.08 775.93 L 648.26 770.74 L 659.23 765.05 L 669.87 758.92 L 680.18 752.37 L 690.18 745.37 L 699.88 737.93 L 709.25 730.06 L 718.23 721.83 L 726.83 713.23 L 735.06 704.25 L 742.93 694.88 L 750.37 685.18 L 757.37 675.18 L 763.92 664.87 L 770.05 654.23 L 775.74 643.26 L 780.93 632.08 L 785.61 620.65 L 789.79 608.96 L 793.48 597.00 L 796.66 584.74 L 799.26 572.43 L 801.30 559.92 L 802.78 547.19 L 803.68 534.22 L 804.00 521.00 L 803.68 507.78 L 802.78 494.81 L 801.30 482.08 L 799.26 469.57 L 796.66 457.26 L 793.48 445.00 L 789.79 433.04 L 785.61 421.35 L 780.93 409.92 L 775.74 398.74 L 770.05 387.77 L 763.93 377.13 L 757.37 366.82 L 750.37 356.82 L 742.93 347.13 L 735.06 337.75 L 726.83 328.77 L 718.23 320.17 L 709.25 311.94 L 699.88 304.07 L 690.18 296.63 L 680.18 289.63 L 669.87 283.08 L 659.23 276.95 L 648.26 271.26 L 637.08 266.07 L 625.65 261.39 L 613.96 257.21 L 602.00 253.52 L 589.74 250.34 L 577.43 247.74 L 564.92 245.70 L 552.19 244.22 L 539.22 243.32 L 526.00 243.00 L 512.78 243.32 L 499.81 244.22 L 487.08 245.70 L 474.57 247.74 L 462.26 250.34 L 450.00 253.52 L 438.04 257.21 L 426.35 261.39 L 414.92 266.07 L 403.74 271.26 L 392.77 276.95 L 382.13 283.08 L 371.82 289.63 L 361.82 296.63 L 352.13 304.07 L 342.75 311.94 L 333.77 320.17 L 325.17 328.77 L 316.94 337.75 L 309.07 347.13 L 301.63 356.82 L 294.63 366.82 L 288.08 377.13 L 281.95 387.77 L 276.26 398.74 L 271.07 409.92 L 266.39 421.35 L 262.21 433.04 L 258.52 445.00 L 255.34 457.26 L 252.74 469.57 L 250.70 482.08 L 249.22 494.81 L 248.32 507.78 L 248.00 521.00 L 248.32 534.22 L 249.22 547.19 L 250.70 559.92 L 252.74 572.43 L 255.34 584.74 L 258.52 597.00 L 262.21 608.96 L 266.39 620.65 L 271.07 632.08 L 276.26 643.26 L 281.95 654.23 L 288.08 664.87 L 294.63 675.18 L 301.63 685.18 L 309.07 694.88 L 316.94 704.25 L 325.17 713.23 L 333.77 721.83 L 342.75 730.06 L 352.13 737.93 L 361.82 745.37 L 371.82 752.37 L 382.13 758.92 L 392.77 765.05 L 403.74 770.74 L 414.92 775.93 L 426.35 780.61 L 438.04 784.79 L 450.00 788.48 L 462.26 791.66 L 474.57 794.26 L 487.08 796.30 L 499.81 797.78 L 512.78 798.68 L 526.00 799.00 Z" fill="url(#linearGradient-1)" fill-rule="nonzero" group-id="1" id="路径" node-id="38" stroke-linecap="butt" stroke-width="1" target-height="556" target-width="556" target-x="248" target-y="243"></path><g node-id="154"><path d="M 734.37 423.53 L 727.95 423.53 L 710.08 423.53 L 682.84 423.53 L 648.32 423.53 L 608.59 423.53 L 565.74 423.53 L 521.85 423.53 L 479.00 423.53 L 439.28 423.53 L 404.76 423.53 L 377.52 423.53 L 359.65 423.53 L 353.23 423.53 L 351.94 426.35 L 348.53 433.76 L 343.72 444.24 L 338.20 456.25 L 332.68 468.26 L 327.86 478.74 L 324.46 486.15 L 323.16 488.96 L 329.58 488.96 L 347.45 488.96 L 374.68 488.96 L 409.20 488.96 L 448.93 488.96 L 491.77 488.96 L 535.66 488.96 L 578.51 488.96 L 618.23 488.96 L 652.75 488.96 L 679.99 488.96 L 697.85 488.96 L 704.27 488.96 L 705.57 486.15 L 708.97 478.74 L 713.79 468.26 L 719.32 456.25 L 724.85 444.24 L 729.66 433.76 L 733.07 426.35 L 734.37 423.53 Z" fill="url(#linearGradient-2)" fill-rule="nonzero" group-id="1,2" id="路径" node-id="40" stroke-linecap="butt" stroke-width="1" target-height="65.42612" target-width="411.2025" target-x="323.16455" target-y="423.53418"></path><path d="M 543.32 412.25 L 537.53 412.25 L 521.67 412.25 L 497.98 412.25 L 468.69 412.25 L 436.04 412.25 L 402.27 412.25 L 369.63 412.25 L 340.33 412.25 L 316.64 412.25 L 300.78 412.25 L 295.00 412.25 L 296.29 415.50 L 299.68 424.06 L 304.49 436.17 L 309.99 450.04 L 315.49 463.92 L 320.29 476.02 L 323.69 484.58 L 324.98 487.83 L 330.76 487.83 L 346.62 487.83 L 370.31 487.83 L 399.59 487.83 L 432.24 487.83 L 466.00 487.83 L 498.65 487.83 L 527.94 487.83 L 551.63 487.83 L 567.48 487.83 L 573.27 487.83 L 571.98 484.58 L 568.59 476.02 L 563.79 463.92 L 558.29 450.04 L 552.79 436.17 L 548.00 424.06 L 544.60 415.50 L 543.32 412.25 Z" fill="url(#linearGradient-3)" fill-rule="nonzero" group-id="1,2" id="路径" node-id="41" stroke-linecap="butt" stroke-width="1" target-height="75.57843" target-width="278.2658" target-x="295" target-y="412.25385"></path><path d="M 740.00 412.25 L 735.31 412.25 L 722.75 412.25 L 704.56 412.25 L 683.00 412.25 L 660.31 412.25 L 638.75 412.25 L 620.56 412.25 L 607.99 412.25 L 603.31 412.25 L 602.02 415.50 L 598.61 424.06 L 593.80 436.17 L 588.29 450.04 L 582.77 463.92 L 577.96 476.02 L 574.56 484.58 L 573.27 487.83 L 577.95 487.83 L 590.52 487.83 L 608.70 487.83 L 630.27 487.83 L 652.96 487.83 L 674.52 487.83 L 692.71 487.83 L 705.27 487.83 L 709.96 487.83 L 711.25 484.58 L 714.65 476.02 L 719.46 463.92 L 724.98 450.04 L 730.49 436.17 L 735.31 424.06 L 738.71 415.50 L 740.00 412.25 Z" fill="url(#linearGradient-4)" fill-rule="nonzero" group-id="1,2" id="路径" node-id="42" stroke-linecap="butt" stroke-width="1" target-height="75.5784" target-width="166.73419" target-x="573.2658" target-y="412.25385"></path><path d="M 709.58 486.70 L 703.78 486.70 L 687.88 486.70 L 664.13 486.70 L 634.76 486.70 L 602.02 486.70 L 568.17 486.70 L 535.43 486.70 L 506.06 486.70 L 482.31 486.70 L 466.41 486.70 L 460.61 486.70 L 460.61 492.51 L 460.61 508.43 L 460.61 532.22 L 460.61 561.62 L 460.61 594.40 L 460.61 628.30 L 460.61 661.08 L 460.61 690.49 L 460.61 714.27 L 460.61 730.19 L 460.61 736.00 L 466.41 736.00 L 482.31 736.00 L 506.06 736.00 L 535.43 736.00 L 568.17 736.00 L 602.02 736.00 L 634.76 736.00 L 664.13 736.00 L 687.88 736.00 L 703.78 736.00 L 709.58 736.00 L 709.58 730.19 L 709.58 714.27 L 709.58 690.49 L 709.58 661.08 L 709.58 628.30 L 709.58 594.40 L 709.58 561.62 L 709.58 532.22 L 709.58 508.43 L 709.58 492.51 L 709.58 486.70 Z" fill="url(#linearGradient-5)" fill-rule="nonzero" group-id="1,2" id="路径" node-id="43" stroke-linecap="butt" stroke-width="1" target-height="249.2959" target-width="248.9747" target-x="460.60757" target-y="486.70416"></path><path d="M 574.39 486.70 L 568.59 486.70 L 552.69 486.70 L 528.94 486.70 L 499.57 486.70 L 466.83 486.70 L 432.98 486.70 L 400.24 486.70 L 370.87 486.70 L 347.12 486.70 L 331.22 486.70 L 325.42 486.70 L 325.42 492.51 L 325.42 508.43 L 325.42 532.22 L 325.42 561.62 L 325.42 594.40 L 325.42 628.30 L 325.42 661.08 L 325.42 690.49 L 325.42 714.27 L 325.42 730.19 L 325.42 736.00 L 331.22 736.00 L 347.12 736.00 L 370.87 736.00 L 400.24 736.00 L 432.98 736.00 L 466.83 736.00 L 499.57 736.00 L 528.94 736.00 L 552.69 736.00 L 568.59 736.00 L 574.39 736.00 L 574.39 730.19 L 574.39 714.27 L 574.39 690.49 L 574.39 661.08 L 574.39 628.30 L 574.39 594.40 L 574.39 561.62 L 574.39 532.22 L 574.39 508.43 L 574.39 492.51 L 574.39 486.70 Z" fill="url(#linearGradient-6)" fill-rule="nonzero" group-id="1,2" id="路径" node-id="44" stroke-linecap="butt" stroke-width="1" target-height="249.2959" target-width="248.97473" target-x="325.41772" target-y="486.70416"></path><path d="M 648.76 234.95 L 646.93 232.31 L 644.92 230.09 L 642.71 228.26 L 640.27 226.75 L 637.85 225.73 L 635.41 225.14 L 632.93 225.01 L 630.61 225.39 L 628.41 226.27 L 626.48 227.65 L 624.97 229.37 L 623.83 231.48 L 623.12 233.79 L 622.80 236.31 L 622.91 239.10 L 623.43 241.84 L 624.39 244.64 L 625.83 247.51 L 626.26 248.20 L 624.69 248.70 L 623.21 249.55 L 621.78 250.78 L 620.58 252.25 L 619.59 253.98 L 618.83 256.01 L 618.36 258.70 L 618.45 261.18 L 619.07 263.48 L 620.13 265.36 L 621.09 266.39 L 622.21 267.15 L 623.51 267.67 L 624.90 267.86 L 626.27 267.75 L 627.65 267.33 L 629.56 266.23 L 631.31 264.55 L 632.71 262.47 L 633.72 259.92 L 634.15 257.71 L 634.20 255.64 L 636.29 256.57 L 638.35 257.16 L 640.39 257.44 L 642.43 257.38 L 644.35 256.96 L 646.19 256.19 L 647.65 255.21 L 648.88 254.03 L 649.90 252.64 L 651.03 250.28 L 651.67 247.56 L 654.43 248.59 L 657.23 249.05 L 659.80 248.96 L 662.21 248.36 L 664.16 247.34 L 665.24 246.41 L 666.04 245.33 L 666.57 244.10 L 666.77 242.77 L 666.65 241.46 L 666.22 240.13 L 665.08 238.30 L 663.32 236.61 L 661.16 235.28 L 658.50 234.29 L 655.79 233.85 L 653.29 233.91 L 650.95 234.45 L 649.01 235.38 L 648.76 234.95 Z" fill="url(#linearGradient-7)" fill-rule="evenodd" group-id="1,2" id="路径" node-id="45" stroke-linecap="butt" stroke-width="1" target-height="42.849014" target-width="48.410522" target-x="618.35583" target-y="225.01079"></path><g node-id="157"><path d="M 370.58 266.48 L 368.33 268.37 L 365.95 269.64 L 364.24 270.16 L 362.52 270.37 L 360.75 270.26 L 358.77 269.73 L 356.98 268.83 L 355.34 267.54 L 353.94 265.97 L 352.75 264.11 L 351.76 261.94 L 350.50 263.39 L 348.93 264.74 L 346.56 266.13 L 344.20 266.93 L 341.82 267.20 L 339.69 266.92 L 338.39 266.42 L 337.28 265.68 L 336.36 264.70 L 335.70 263.52 L 335.33 262.25 L 335.25 260.85 L 335.63 258.73 L 336.60 256.54 L 338.08 254.54 L 340.13 252.70 L 342.03 251.54 L 343.90 250.76 L 345.76 250.34 L 347.65 250.25 L 349.33 250.51 L 350.83 251.10 L 351.54 248.00 L 352.57 245.23 L 353.90 242.77 L 355.57 240.52 L 357.39 238.73 L 359.37 237.35 L 361.56 236.38 L 363.77 235.94 L 366.08 236.01 L 368.27 236.62 L 370.22 237.69 L 371.99 239.24 L 373.45 241.11 L 374.65 243.31 L 375.57 245.89 L 376.11 248.59 L 376.29 251.48 L 376.08 254.60 L 378.08 255.06 L 380.13 256.06 L 382.00 257.50 L 383.72 259.43 L 385.11 261.79 L 385.91 264.15 L 386.18 266.53 L 385.89 268.66 L 385.39 269.97 L 384.65 271.07 L 383.67 272.00 L 382.49 272.66 L 381.21 273.03 L 379.81 273.11 L 377.70 272.74 L 375.51 271.76 L 373.51 270.29 L 371.67 268.25 L 370.58 266.48 Z" fill="url(#linearGradient-8)" fill-rule="evenodd" group-id="1,2,5" id="路径" node-id="47" stroke-linecap="butt" stroke-width="1" target-height="37.17163" target-width="50.926056" target-x="335.2515" target-y="235.93802"></path></g><path d="M 361.08 275.52 L 361.11 274.87 L 360.90 274.29 L 360.49 273.83 L 359.92 273.55 L 359.28 273.53 L 358.71 273.74 L 358.25 274.15 L 357.98 274.73 L 358.78 274.94 L 360.28 275.32 L 361.08 275.52 Z M 399.38 348.14 L 399.27 348.95 L 399.17 349.75 L 399.27 348.95 L 399.38 348.14 Z M 410.57 305.96 L 410.85 306.72 L 411.12 307.48 L 410.85 306.72 L 410.57 305.96 Z M 459.73 391.90 L 460.37 391.93 L 460.95 391.72 L 461.40 391.32 L 461.68 390.73 L 461.72 390.08 L 461.51 389.50 L 461.11 389.04 L 460.54 388.76 L 460.33 389.57 L 459.94 391.08 L 459.73 391.90 Z M 356.96 282.55 L 357.07 283.19 L 357.39 283.72 L 357.88 284.08 L 358.51 284.23 L 359.14 284.12 L 359.65 283.80 L 360.01 283.30 L 360.16 282.67 L 359.33 282.64 L 357.79 282.58 L 356.96 282.55 Z M 361.55 297.31 L 361.29 296.72 L 360.86 296.29 L 360.30 296.05 L 359.66 296.05 L 359.07 296.31 L 358.64 296.75 L 358.41 297.32 L 358.41 297.97 L 359.23 297.80 L 360.73 297.48 L 361.55 297.31 Z M 362.77 312.72 L 363.12 313.26 L 363.62 313.61 L 364.21 313.75 L 364.84 313.63 L 365.38 313.28 L 365.72 312.77 L 365.85 312.17 L 365.74 311.53 L 364.97 311.84 L 363.54 312.41 L 362.77 312.72 Z M 372.24 324.82 L 371.80 324.34 L 371.25 324.09 L 370.64 324.06 L 370.04 324.28 L 369.57 324.73 L 369.32 325.29 L 369.30 325.91 L 369.52 326.52 L 370.22 326.07 L 371.53 325.26 L 372.24 324.82 Z M 378.90 338.73 L 379.44 339.08 L 380.03 339.20 L 380.63 339.08 L 381.16 338.72 L 381.51 338.18 L 381.63 337.57 L 381.51 336.96 L 381.15 336.42 L 380.57 337.02 L 379.49 338.13 L 378.90 338.73 Z M 392.83 344.65 L 392.20 344.52 L 391.60 344.64 L 391.09 344.98 L 390.73 345.51 L 390.61 346.15 L 390.73 346.76 L 391.06 347.27 L 391.59 347.64 L 391.91 346.86 L 392.51 345.42 L 392.83 344.65 Z M 406.57 350.31 L 407.20 350.19 L 407.70 349.85 L 408.05 349.34 L 408.18 348.70 L 408.06 348.07 L 407.73 347.55 L 407.23 347.20 L 406.60 347.06 L 406.59 347.91 L 406.58 349.47 L 406.57 350.31 Z M 420.10 344.85 L 419.56 345.20 L 419.22 345.71 L 419.08 346.31 L 419.19 346.95 L 419.54 347.50 L 420.04 347.85 L 420.63 347.98 L 421.26 347.87 L 420.96 347.09 L 420.40 345.63 L 420.10 344.85 Z M 433.15 338.41 L 433.39 337.81 L 433.38 337.19 L 433.15 336.62 L 432.70 336.16 L 432.10 335.92 L 431.49 335.92 L 430.93 336.16 L 430.48 336.62 L 431.17 337.08 L 432.46 337.94 L 433.15 338.41 Z M 433.83 323.73 L 434.00 324.36 L 434.36 324.85 L 434.88 325.17 L 435.52 325.26 L 436.14 325.10 L 436.62 324.72 L 436.93 324.20 L 437.03 323.55 L 436.20 323.60 L 434.66 323.68 L 433.83 323.73 Z M 431.51 309.21 L 431.00 308.82 L 430.42 308.66 L 429.81 308.74 L 429.26 309.06 L 428.87 309.57 L 428.71 310.17 L 428.79 310.78 L 429.11 311.35 L 429.73 310.79 L 430.89 309.77 L 431.51 309.21 Z M 417.64 306.16 L 418.26 306.01 L 418.76 305.66 L 419.09 305.14 L 419.21 304.50 L 419.07 303.87 L 418.72 303.37 L 418.21 303.03 L 417.58 302.91 L 417.60 303.75 L 417.62 305.31 L 417.64 306.16 Z M 404.23 307.31 L 403.77 307.76 L 403.53 308.33 L 403.51 308.95 L 403.74 309.55 L 404.19 310.02 L 404.75 310.26 L 405.36 310.28 L 405.95 310.04 L 405.51 309.33 L 404.68 308.02 L 404.23 307.31 Z M 398.84 318.55 L 398.95 317.91 L 398.82 317.30 L 398.48 316.79 L 397.94 316.44 L 397.31 316.32 L 396.72 316.46 L 396.22 316.80 L 395.87 317.35 L 396.64 317.66 L 398.07 318.23 L 398.84 318.55 Z M 394.63 330.34 L 394.85 330.95 L 395.25 331.40 L 395.80 331.67 L 396.44 331.71 L 397.04 331.49 L 397.49 331.08 L 397.76 330.53 L 397.80 329.88 L 396.98 330.00 L 395.45 330.22 L 394.63 330.34 Z M 401.26 341.21 L 400.88 340.68 L 400.36 340.37 L 399.76 340.27 L 399.14 340.41 L 398.62 340.80 L 398.31 341.33 L 398.21 341.94 L 398.36 342.57 L 399.11 342.22 L 400.51 341.56 L 401.26 341.21 Z M 404.65 353.47 L 405.12 353.92 L 405.69 354.13 L 406.30 354.12 L 406.88 353.86 L 407.32 353.38 L 407.53 352.81 L 407.52 352.19 L 407.26 351.59 L 406.58 352.08 L 405.33 352.99 L 404.65 353.47 Z M 414.87 360.95 L 414.34 360.58 L 413.75 360.45 L 413.15 360.55 L 412.60 360.89 L 412.24 361.42 L 412.10 362.02 L 412.20 362.63 L 412.54 363.18 L 413.14 362.60 L 414.26 361.53 L 414.87 360.95 Z M 421.59 371.76 L 422.15 372.06 L 422.76 372.12 L 423.34 371.95 L 423.84 371.54 L 424.14 370.97 L 424.20 370.35 L 424.03 369.76 L 423.62 369.25 L 423.10 369.90 L 422.11 371.11 L 421.59 371.76 Z M 433.29 376.44 L 432.70 376.21 L 432.09 376.22 L 431.53 376.46 L 431.08 376.92 L 430.85 377.53 L 430.86 378.15 L 431.10 378.71 L 431.56 379.17 L 432.01 378.46 L 432.84 377.15 L 433.29 376.44 Z M 442.33 385.34 L 442.95 385.50 L 443.55 385.41 L 444.08 385.10 L 444.47 384.59 L 444.63 383.96 L 444.54 383.35 L 444.24 382.81 L 443.73 382.42 L 443.37 383.18 L 442.69 384.58 L 442.33 385.34 Z M 454.80 387.03 L 454.17 386.95 L 453.58 387.11 L 453.10 387.49 L 452.78 388.05 L 452.70 388.69 L 452.86 389.29 L 453.23 389.78 L 453.79 390.10 L 454.05 389.31 L 454.54 387.83 L 454.80 387.03 Z M 357.98 274.73 L 357.29 278.43 L 356.96 282.55 L 357.79 282.58 L 359.33 282.64 L 360.16 282.67 L 360.47 278.84 L 361.08 275.52 L 360.28 275.32 L 358.78 274.94 L 357.98 274.73 Z M 358.41 297.97 L 359.55 302.83 L 361.00 307.75 L 362.77 312.72 L 363.54 312.41 L 364.97 311.84 L 365.74 311.53 L 363.30 304.35 L 361.55 297.31 L 360.73 297.48 L 359.23 297.80 L 358.41 297.97 Z M 369.52 326.52 L 372.42 330.96 L 375.55 335.02 L 378.90 338.73 L 379.49 338.13 L 380.57 337.02 L 381.15 336.42 L 378.00 332.94 L 375.03 329.08 L 372.24 324.82 L 371.53 325.26 L 370.22 326.07 L 369.52 326.52 Z M 391.59 347.64 L 395.30 348.95 L 399.17 349.75 L 399.27 348.92 L 399.48 347.37 L 399.59 346.53 L 396.16 345.82 L 392.83 344.65 L 392.51 345.42 L 391.91 346.86 L 391.59 347.64 Z M 399.17 349.75 L 403.04 350.16 L 406.57 350.31 L 406.58 349.47 L 406.59 347.91 L 406.60 347.06 L 403.28 346.92 L 399.59 346.53 L 399.48 347.37 L 399.27 348.92 L 399.17 349.75 Z M 421.26 347.87 L 425.07 346.02 L 428.25 343.84 L 430.97 341.25 L 433.15 338.41 L 432.46 337.94 L 431.17 337.08 L 430.48 336.62 L 428.62 339.05 L 426.25 341.30 L 423.48 343.21 L 420.10 344.85 L 420.40 345.63 L 420.96 347.09 L 421.26 347.87 Z M 437.03 323.55 L 436.51 319.59 L 435.40 315.82 L 434.34 313.43 L 433.05 311.23 L 431.51 309.21 L 430.89 309.77 L 429.73 310.79 L 429.11 311.35 L 430.97 313.97 L 432.42 316.99 L 433.38 320.25 L 433.83 323.73 L 434.66 323.68 L 436.20 323.60 L 437.03 323.55 Z M 417.58 302.91 L 415.21 303.09 L 412.70 303.59 L 410.02 304.43 L 410.30 305.22 L 410.84 306.69 L 411.12 307.48 L 414.61 306.48 L 417.64 306.16 L 417.62 305.31 L 417.60 303.75 L 417.58 302.91 Z M 410.02 304.43 L 406.91 305.78 L 404.23 307.31 L 404.68 308.02 L 405.51 309.33 L 405.95 310.04 L 408.31 308.70 L 411.12 307.48 L 410.84 306.69 L 410.30 305.22 L 410.02 304.43 Z M 395.87 317.35 L 394.95 320.36 L 394.43 323.51 L 394.32 326.83 L 394.63 330.34 L 395.45 330.22 L 396.98 330.00 L 397.80 329.88 L 397.52 326.69 L 397.62 323.77 L 398.06 321.06 L 398.84 318.55 L 398.07 318.23 L 396.64 317.66 L 395.87 317.35 Z M 398.36 342.57 L 401.14 347.96 L 404.65 353.47 L 405.33 352.99 L 406.58 352.08 L 407.26 351.59 L 403.89 346.31 L 401.26 341.21 L 400.51 341.56 L 399.11 342.22 L 398.36 342.57 Z M 412.54 363.18 L 416.86 367.54 L 421.59 371.76 L 422.11 371.11 L 423.10 369.90 L 423.62 369.25 L 419.04 365.16 L 414.87 360.95 L 414.26 361.53 L 413.14 362.60 L 412.54 363.18 Z M 431.56 379.17 L 436.82 382.40 L 442.33 385.34 L 442.69 384.58 L 443.37 383.18 L 443.73 382.42 L 438.39 379.57 L 433.29 376.44 L 432.84 377.15 L 432.01 378.46 L 431.56 379.17 Z M 453.79 390.10 L 459.73 391.90 L 459.94 391.08 L 460.33 389.57 L 460.54 388.76 L 454.80 387.03 L 454.54 387.83 L 454.05 389.31 L 453.79 390.10 Z" fill="#5ec0d6" fill-rule="nonzero" group-id="1,2" id="形状" node-id="48" stroke-linecap="butt" stroke-width="1" target-height="118.40567" target-width="104.75342" target-x="356.963" target-y="273.5256"></path><path d="M 650.59 271.31 L 650.41 270.68 L 650.48 270.07 L 650.78 269.53 L 651.29 269.12 L 651.91 268.94 L 652.52 269.02 L 653.06 269.32 L 653.47 269.82 L 652.72 270.21 L 651.33 270.92 L 650.59 271.31 Z M 579.65 407.53 L 579.03 407.71 L 578.41 407.64 L 577.87 407.35 L 577.46 406.84 L 577.28 406.22 L 577.35 405.60 L 577.64 405.06 L 578.14 404.65 L 578.53 405.40 L 579.26 406.78 L 579.65 407.53 Z M 656.41 276.40 L 656.52 277.04 L 656.38 277.64 L 656.02 278.15 L 655.48 278.50 L 654.83 278.60 L 654.23 278.46 L 653.73 278.11 L 653.38 277.56 L 654.17 277.26 L 655.62 276.70 L 656.41 276.40 Z M 656.74 290.77 L 656.79 290.12 L 657.06 289.57 L 657.52 289.16 L 658.14 288.94 L 658.78 288.99 L 659.34 289.27 L 659.75 289.73 L 659.96 290.34 L 659.12 290.45 L 657.57 290.66 L 656.74 290.77 Z M 660.21 304.70 L 660.02 305.32 L 659.63 305.80 L 659.09 306.10 L 658.44 306.17 L 657.82 305.98 L 657.34 305.59 L 657.05 305.04 L 656.98 304.40 L 657.81 304.48 L 659.37 304.62 L 660.21 304.70 Z M 654.36 317.84 L 654.67 317.27 L 655.14 316.88 L 655.73 316.69 L 656.38 316.74 L 656.95 317.05 L 657.34 317.52 L 657.53 318.11 L 657.48 318.76 L 656.67 318.52 L 655.17 318.08 L 654.36 317.84 Z M 652.40 332.09 L 652.02 332.62 L 651.49 332.93 L 650.88 333.03 L 650.25 332.88 L 649.73 332.49 L 649.41 331.96 L 649.31 331.35 L 649.46 330.72 L 650.23 331.08 L 651.64 331.74 L 652.40 332.09 Z M 642.86 342.86 L 643.30 342.39 L 643.86 342.14 L 644.48 342.11 L 645.09 342.34 L 645.56 342.78 L 645.81 343.35 L 645.84 343.97 L 645.61 344.58 L 644.90 344.13 L 643.57 343.30 L 642.86 342.86 Z M 637.55 356.24 L 637.06 356.66 L 636.47 356.86 L 635.86 356.83 L 635.27 356.54 L 634.85 356.05 L 634.65 355.47 L 634.68 354.85 L 634.97 354.27 L 635.64 354.78 L 636.88 355.73 L 637.55 356.24 Z M 626.11 364.97 L 626.63 364.58 L 627.23 364.43 L 627.84 364.52 L 628.40 364.85 L 628.79 365.37 L 628.94 365.97 L 628.85 366.58 L 628.53 367.14 L 627.90 366.58 L 626.73 365.53 L 626.11 364.97 Z M 618.75 377.35 L 618.20 377.70 L 617.59 377.81 L 616.99 377.69 L 616.45 377.32 L 616.10 376.78 L 615.99 376.17 L 616.12 375.56 L 616.48 375.03 L 617.07 375.63 L 618.16 376.75 L 618.75 377.35 Z M 606.23 384.44 L 606.79 384.12 L 607.41 384.05 L 608.00 384.21 L 608.51 384.61 L 608.83 385.18 L 608.90 385.79 L 608.74 386.39 L 608.35 386.90 L 607.80 386.26 L 606.78 385.08 L 606.23 384.44 Z M 597.38 395.79 L 596.80 396.07 L 596.18 396.10 L 595.60 395.91 L 595.11 395.48 L 594.83 394.89 L 594.80 394.27 L 594.99 393.69 L 595.42 393.20 L 595.93 393.87 L 596.88 395.12 L 597.38 395.79 Z M 584.03 401.19 L 584.63 400.96 L 585.25 400.98 L 585.82 401.22 L 586.27 401.69 L 586.50 402.30 L 586.48 402.92 L 586.24 403.48 L 585.77 403.93 L 585.32 403.22 L 584.48 401.90 L 584.03 401.19 Z M 653.47 269.82 L 655.05 273.12 L 656.41 276.40 L 655.62 276.70 L 654.17 277.26 L 653.38 277.56 L 652.09 274.45 L 650.59 271.31 L 651.33 270.92 L 652.72 270.21 L 653.47 269.82 Z M 659.96 290.34 L 660.40 295.17 L 660.48 299.95 L 660.21 304.70 L 659.37 304.62 L 657.81 304.48 L 656.98 304.40 L 657.24 299.87 L 657.16 295.33 L 656.74 290.77 L 657.57 290.66 L 659.12 290.45 L 659.96 290.34 Z M 657.48 318.76 L 655.21 325.48 L 652.40 332.09 L 651.64 331.74 L 650.23 331.08 L 649.46 330.72 L 652.18 324.31 L 654.36 317.84 L 655.17 318.08 L 656.67 318.52 L 657.48 318.76 Z M 645.61 344.58 L 641.72 350.50 L 637.55 356.24 L 636.88 355.73 L 635.64 354.78 L 634.97 354.27 L 639.06 348.64 L 642.86 342.86 L 643.57 343.30 L 644.90 344.13 L 645.61 344.58 Z M 628.53 367.14 L 623.65 372.40 L 618.75 377.35 L 618.16 376.75 L 617.07 375.63 L 616.48 375.03 L 621.31 370.15 L 626.11 364.97 L 626.73 365.53 L 627.90 366.58 L 628.53 367.14 Z M 608.35 386.90 L 602.65 391.66 L 597.38 395.79 L 596.88 395.12 L 595.93 393.87 L 595.42 393.20 L 600.61 389.13 L 606.23 384.44 L 606.78 385.08 L 607.80 386.26 L 608.35 386.90 Z M 585.77 403.93 L 579.65 407.53 L 579.26 406.78 L 578.53 405.40 L 578.14 404.65 L 584.03 401.19 L 584.48 401.90 L 585.32 403.22 L 585.77 403.93 Z" fill="#5ec0d6" fill-rule="nonzero" group-id="1,2,6" id="形状" node-id="50" stroke-linecap="butt" stroke-width="1" target-height="138.76303" target-width="83.206604" target-x="577.2777" target-y="268.9439"></path></g><path d="M 229.52 476.92 L 230.28 475.17 L 231.43 473.98 L 232.90 473.24 L 234.50 473.00 L 236.10 473.24 L 237.57 473.98 L 238.72 475.17 L 239.48 476.92 L 239.92 478.75 L 240.97 483.11 L 242.23 488.31 L 243.28 492.67 L 243.72 494.50 L 244.24 495.82 L 245.08 496.92 L 246.18 497.76 L 247.50 498.28 L 249.33 498.72 L 253.69 499.77 L 258.89 501.03 L 263.25 502.08 L 265.08 502.52 L 266.83 503.28 L 268.02 504.43 L 268.76 505.90 L 269.00 507.50 L 268.76 509.10 L 268.02 510.57 L 266.83 511.72 L 265.08 512.48 L 263.25 512.92 L 258.89 513.97 L 253.69 515.23 L 249.33 516.28 L 247.50 516.72 L 246.18 517.24 L 245.08 518.08 L 244.24 519.18 L 243.72 520.50 L 243.28 522.33 L 242.23 526.69 L 240.97 531.89 L 239.92 536.25 L 239.48 538.08 L 238.72 539.83 L 237.57 541.02 L 236.10 541.76 L 234.50 542.00 L 232.90 541.76 L 231.43 541.02 L 230.28 539.83 L 229.52 538.08 L 229.08 536.25 L 228.03 531.89 L 226.77 526.69 L 225.72 522.33 L 225.28 520.50 L 224.76 519.18 L 223.92 518.08 L 222.82 517.24 L 221.50 516.72 L 219.67 516.28 L 215.31 515.23 L 210.11 513.97 L 205.75 512.92 L 203.92 512.48 L 202.17 511.72 L 200.98 510.57 L 200.24 509.10 L 200.00 507.50 L 200.24 505.90 L 200.98 504.43 L 202.17 503.28 L 203.92 502.52 L 205.75 502.08 L 210.11 501.03 L 215.31 499.77 L 219.67 498.72 L 221.50 498.28 L 222.82 497.76 L 223.92 496.92 L 224.76 495.82 L 225.28 494.50 L 225.72 492.67 L 226.77 488.31 L 228.03 483.11 L 229.08 478.75 L 229.52 476.92 Z" fill="url(#linearGradient-9)" fill-rule="nonzero" group-id="1" id="路径" node-id="51" stroke-linecap="butt" stroke-width="1" target-height="69" target-width="69" target-x="200" target-y="473"></path><path d="M 766.52 649.92 L 767.28 648.17 L 768.43 646.98 L 769.90 646.24 L 771.50 646.00 L 773.10 646.24 L 774.57 646.98 L 775.72 648.17 L 776.48 649.92 L 776.92 651.75 L 777.97 656.11 L 779.23 661.31 L 780.28 665.67 L 780.72 667.50 L 781.24 668.82 L 782.08 669.92 L 783.18 670.76 L 784.50 671.28 L 786.33 671.72 L 790.69 672.77 L 795.89 674.03 L 800.25 675.08 L 802.08 675.52 L 803.83 676.28 L 805.02 677.43 L 805.76 678.90 L 806.00 680.50 L 805.76 682.10 L 805.02 683.57 L 803.83 684.72 L 802.08 685.48 L 800.25 685.92 L 795.89 686.97 L 790.69 688.23 L 786.33 689.28 L 784.50 689.72 L 783.18 690.24 L 782.08 691.08 L 781.24 692.18 L 780.72 693.50 L 780.28 695.33 L 779.23 699.69 L 777.97 704.89 L 776.92 709.25 L 776.48 711.08 L 775.72 712.83 L 774.57 714.02 L 773.10 714.76 L 771.50 715.00 L 769.90 714.76 L 768.43 714.02 L 767.28 712.83 L 766.52 711.08 L 766.08 709.25 L 765.03 704.89 L 763.77 699.69 L 762.72 695.33 L 762.28 693.50 L 761.76 692.18 L 760.92 691.08 L 759.82 690.24 L 758.50 689.72 L 756.67 689.28 L 752.31 688.23 L 747.11 686.97 L 742.75 685.92 L 740.92 685.48 L 739.17 684.72 L 737.98 683.57 L 737.24 682.10 L 737.00 680.50 L 737.24 678.90 L 737.98 677.43 L 739.17 676.28 L 740.92 675.52 L 742.75 675.08 L 747.11 674.03 L 752.31 672.77 L 756.67 671.72 L 758.50 671.28 L 759.82 670.76 L 760.92 669.92 L 761.76 668.82 L 762.28 667.50 L 762.72 665.67 L 763.77 661.31 L 765.03 656.11 L 766.08 651.75 L 766.52 649.92 Z" fill="url(#linearGradient-9)" fill-rule="nonzero" group-id="1" id="路径" node-id="52" stroke-linecap="butt" stroke-width="1" target-height="69" target-width="69.00006" target-x="737" target-y="646"></path><path d="M 303.50 352.07 L 305.43 351.89 L 307.20 351.41 L 308.84 350.63 L 310.32 349.58 L 311.58 348.32 L 312.63 346.84 L 313.41 345.20 L 313.89 343.43 L 314.07 341.50 L 313.89 339.57 L 313.41 337.80 L 312.63 336.16 L 311.58 334.68 L 310.32 333.42 L 308.84 332.37 L 307.20 331.59 L 305.43 331.11 L 303.50 330.93 L 301.57 331.11 L 299.80 331.59 L 298.16 332.37 L 296.68 333.42 L 295.42 334.68 L 294.37 336.16 L 293.59 337.80 L 293.11 339.57 L 292.93 341.50 L 293.11 343.43 L 293.59 345.20 L 294.37 346.84 L 295.42 348.32 L 296.68 349.58 L 298.16 350.63 L 299.80 351.41 L 301.57 351.89 L 303.50 352.07 Z M 303.50 360.00 L 306.88 359.69 L 309.97 358.84 L 312.84 357.47 L 315.43 355.64 L 317.64 353.43 L 319.47 350.84 L 320.84 347.97 L 321.69 344.88 L 322.00 341.50 L 321.69 338.12 L 320.84 335.03 L 319.47 332.16 L 317.64 329.57 L 315.43 327.36 L 312.84 325.53 L 309.97 324.16 L 306.88 323.31 L 303.50 323.00 L 300.12 323.31 L 297.03 324.16 L 294.16 325.53 L 291.57 327.36 L 289.36 329.57 L 287.53 332.16 L 286.16 335.03 L 285.31 338.12 L 285.00 341.50 L 285.31 344.88 L 286.16 347.97 L 287.53 350.84 L 289.36 353.43 L 291.57 355.64 L 294.16 357.47 L 297.03 358.84 L 300.12 359.69 L 303.50 360.00 Z" fill="url(#linearGradient-9)" fill-rule="evenodd" group-id="1" id="形状" node-id="53" stroke-linecap="butt" stroke-width="1" target-height="37" target-width="37" target-x="285" target-y="323"></path><path d="M 260.45 623.26 L 260.34 621.70 L 260.75 620.33 L 261.60 619.18 L 262.77 618.37 L 264.15 617.99 L 265.71 618.13 L 267.91 618.75 L 273.18 620.23 L 279.46 622.00 L 284.72 623.47 L 286.93 624.10 L 288.33 624.78 L 289.32 625.83 L 289.89 627.13 L 290.01 628.55 L 289.65 629.94 L 288.74 631.22 L 287.10 632.82 L 283.19 636.63 L 278.52 641.19 L 274.61 645.01 L 272.97 646.61 L 271.67 647.48 L 270.27 647.81 L 268.86 647.66 L 267.57 647.05 L 266.55 646.05 L 265.89 644.62 L 265.33 642.40 L 263.98 637.11 L 262.37 630.78 L 261.01 625.49 L 260.45 623.26 Z" fill="url(#linearGradient-10)" fill-rule="nonzero" group-id="1,3" node-id="147" stroke-linecap="butt" stroke-width="1" target-height="29.826843" target-width="29.669159" target-x="260.34128" target-y="617.98663"></path><path d="M 809.74 550.49 L 811.30 550.38 L 812.67 550.80 L 813.82 551.64 L 814.63 552.81 L 815.01 554.20 L 814.86 555.75 L 814.24 557.96 L 812.76 563.22 L 810.98 569.50 L 809.50 574.76 L 808.87 576.97 L 808.18 578.37 L 807.14 579.35 L 805.83 579.93 L 804.41 580.05 L 803.03 579.68 L 801.75 578.77 L 800.15 577.13 L 796.34 573.21 L 791.79 568.54 L 787.97 564.62 L 786.37 562.98 L 785.50 561.68 L 785.18 560.28 L 785.33 558.87 L 785.94 557.58 L 786.95 556.56 L 788.37 555.91 L 790.59 555.34 L 795.89 554.00 L 802.22 552.40 L 807.52 551.05 L 809.74 550.49 Z" fill="url(#linearGradient-10)" fill-rule="nonzero" group-id="1,4" node-id="151" stroke-linecap="butt" stroke-width="1" target-height="29.660278" target-width="29.834778" target-x="785.176" target-y="550.38477"></path><path d="M 740.00 327.57 L 742.30 327.26 L 744.33 326.40 L 746.06 325.06 L 747.40 323.33 L 748.26 321.30 L 748.57 319.00 L 748.26 316.70 L 747.40 314.67 L 746.06 312.94 L 744.33 311.60 L 742.30 310.74 L 740.00 310.43 L 737.70 310.74 L 735.67 311.60 L 733.94 312.94 L 732.60 314.67 L 731.74 316.70 L 731.43 319.00 L 731.74 321.30 L 732.60 323.33 L 733.94 325.06 L 735.67 326.40 L 737.70 327.26 L 740.00 327.57 Z M 740.00 334.00 L 742.74 333.75 L 745.25 333.06 L 747.57 331.95 L 749.68 330.46 L 751.46 328.68 L 752.95 326.57 L 754.06 324.25 L 754.75 321.74 L 755.00 319.00 L 754.75 316.26 L 754.06 313.75 L 752.95 311.43 L 751.46 309.32 L 749.68 307.54 L 747.57 306.05 L 745.25 304.94 L 742.74 304.25 L 740.00 304.00 L 737.26 304.25 L 734.75 304.94 L 732.43 306.05 L 730.32 307.54 L 728.54 309.32 L 727.05 311.43 L 725.94 313.75 L 725.25 316.26 L 725.00 319.00 L 725.25 321.74 L 725.94 324.25 L 727.05 326.57 L 728.54 328.68 L 730.32 330.46 L 732.43 331.95 L 734.75 333.06 L 737.26 333.75 L 740.00 334.00 Z" fill="url(#linearGradient-9)" fill-rule="evenodd" group-id="1" id="形状" node-id="58" stroke-linecap="butt" stroke-width="1" target-height="30" target-width="30" target-x="725" target-y="304"></path></g></svg>