<?xml version="1.0" standalone="no"?><!DOCTYPE svg PUBLIC "-//W3C//DTD SVG 1.1//EN" "http://www.w3.org/Graphics/SVG/1.1/DTD/svg11.dtd"><svg height="2000" legacy-metrics="false" node-id="1" sillyvg="true" template-height="2000" template-width="2000" version="1.1" viewBox="0 0 2000 2000" width="2000" xmlns="http://www.w3.org/2000/svg" xmlns:xlink="http://www.w3.org/1999/xlink"><defs node-id="627"><linearGradient gradientUnits="userSpaceOnUse" id="SVGID_1_" node-id="7" x1="1575.2732" x2="1575.2732" y1="1333.5264" y2="-990.6652"><stop offset="0.2597" stop-color="#ffffff"></stop><stop offset="1" stop-color="#6397f7"></stop></linearGradient><linearGradient gradientUnits="userSpaceOnUse" id="SVGID_00000025415860900214967240000011773568818671924915_" node-id="12" x1="1367.0226" x2="1367.0226" y1="1485.3397" y2="-838.8519"><stop offset="0.2597" stop-color="#ffffff"></stop><stop offset="1" stop-color="#6397f7"></stop></linearGradient><linearGradient gradientUnits="userSpaceOnUse" id="SVGID_00000111877296652808889650000000662602795449253049_" node-id="17" x1="237.765" x2="237.765" y1="1692.5669" y2="222.7671"><stop offset="0.2597" stop-color="#ffffff"></stop><stop offset="1" stop-color="#6397f7"></stop></linearGradient><linearGradient gradientUnits="userSpaceOnUse" id="SVGID_00000077307109789029340110000009518635244801407125_" node-id="21" x1="663.3768" x2="663.3768" y1="1676.0184" y2="-10.8862"><stop offset="0.2597" stop-color="#ffffff"></stop><stop offset="1" stop-color="#6397f7"></stop></linearGradient><linearGradient gradientUnits="userSpaceOnUse" id="SVGID_00000019664618117697074670000010104562344620553398_" node-id="25" x1="439.152" x2="439.152" y1="1551.8156" y2="-109.0365"><stop offset="0.2597" stop-color="#ffffff"></stop><stop offset="1" stop-color="#6397f7"></stop></linearGradient><linearGradient gradientUnits="userSpaceOnUse" id="SVGID_00000163761414115774716570000008381006950797931961_" node-id="30" x1="175.2054" x2="186.4241" y1="652.9139" y2="235.5508"><stop offset="0" stop-color="#ffffff"></stop><stop offset="1" stop-color="#6397f7"></stop></linearGradient><linearGradient gradientUnits="userSpaceOnUse" id="SVGID_00000116950334271561053080000003191866657248381621_" node-id="35" x1="1201.2517" x2="1201.2517" y1="221.8104" y2="-53.2877"><stop offset="0" stop-color="#ffffff"></stop><stop offset="1" stop-color="#6397f7"></stop></linearGradient><linearGradient gradientUnits="userSpaceOnUse" id="SVGID_00000167394320701490738560000012997662190237388711_" node-id="41" x1="1562.2788" x2="1562.2788" y1="1495.0356" y2="1366.8394"><stop offset="0" stop-color="#ffffff"></stop><stop offset="1" stop-color="#6397f7"></stop></linearGradient><linearGradient gradientUnits="userSpaceOnUse" id="SVGID_00000183211429443449610410000006855541994629395094_" node-id="46" x1="1562.6564" x2="1560.566" y1="1334.3372" y2="1599.2554"><stop offset="0" stop-color="#ffffff"></stop><stop offset="1" stop-color="#6397f7"></stop></linearGradient><linearGradient gradientUnits="userSpaceOnUse" id="SVGID_00000047751456538636209270000013058847557836738737_" node-id="52" x1="503.7863" x2="503.7863" y1="1555.1084" y2="1428.71"><stop offset="0" stop-color="#ffffff"></stop><stop offset="1" stop-color="#6397f7"></stop></linearGradient><linearGradient gradientUnits="userSpaceOnUse" id="SVGID_00000052090572669294737960000012071537305444677272_" node-id="57" x1="504.1047" x2="502.3421" y1="1409.5726" y2="1632.9598"><stop offset="0" stop-color="#ffffff"></stop><stop offset="1" stop-color="#6397f7"></stop></linearGradient><linearGradient gradientUnits="userSpaceOnUse" id="SVGID_00000083781434622128477910000005627321351617417858_" node-id="63" x1="226.2006" x2="226.2006" y1="1868.7142" y2="1706.4114"><stop offset="0" stop-color="#ffffff"></stop><stop offset="1" stop-color="#6397f7"></stop></linearGradient><linearGradient gradientUnits="userSpaceOnUse" id="SVGID_00000167375896698879316050000002930367887024242080_" node-id="68" x1="226.6786" x2="224.0322" y1="1665.262" y2="2000.6614"><stop offset="0" stop-color="#ffffff"></stop><stop offset="1" stop-color="#6397f7"></stop></linearGradient><linearGradient gradientUnits="userSpaceOnUse" id="SVGID_00000144309802615987543740000001119437177901291158_" node-id="73" x1="1001.2857" x2="1001.2857" y1="1980.6039" y2="459.3243"><stop offset="0.2597" stop-color="#ffffff"></stop><stop offset="1" stop-color="#6397f7"></stop></linearGradient><linearGradient gradientUnits="userSpaceOnUse" id="SVGID_00000095334582797391000240000011839819585174561427_" node-id="460" x1="1161.0074" x2="1161.0074" y1="1403.3774" y2="1710.6697"><stop offset="0" stop-color="#5a91f7"></stop><stop offset="0.2039" stop-color="#a2c1fb" stop-opacity="0.8034"></stop><stop offset="0.9749" stop-color="#ffffff" stop-opacity="0.54"></stop></linearGradient><linearGradient gradientUnits="userSpaceOnUse" id="SVGID_00000037678420184233751820000008830931247439187587_" node-id="466" x1="936.6072" x2="936.6072" y1="756.0134" y2="1419.9445"><stop offset="0" stop-color="#91d3f8"></stop><stop offset="0.8519" stop-color="#5a91f7"></stop></linearGradient><linearGradient gradientUnits="userSpaceOnUse" id="SVGID_00000182529002823789650450000008306268226340898456_" node-id="470" x1="949.9929" x2="949.9929" y1="1382.9099" y2="718.9789"><stop offset="0" stop-color="#99c0ff"></stop><stop offset="1" stop-color="#2b62ba"></stop></linearGradient><linearGradient gradientTransform="matrix(0.9989 -0.0468 0.0468 0.9989 -217.8099 81.7836)" gradientUnits="userSpaceOnUse" id="SVGID_00000071545220848811022560000014756152793422043786_" node-id="474" x1="1129.3789" x2="1129.3789" y1="869.5269" y2="751.577"><stop offset="0" stop-color="#91d3f8"></stop><stop offset="1" stop-color="#d9f3ff"></stop></linearGradient><linearGradient gradientTransform="matrix(0.9989 -0.0468 0.0468 0.9989 -217.8099 81.7836)" gradientUnits="userSpaceOnUse" id="SVGID_00000054253144971357306100000001306306061867522973_" node-id="478" x1="1122.1921" x2="1122.1921" y1="747.3148" y2="865.2645"><stop offset="0" stop-color="#91d3f8"></stop><stop offset="0.9944" stop-color="#5a91f7"></stop></linearGradient><linearGradient gradientTransform="matrix(0.9989 -0.0468 0.0468 0.9989 -217.8099 81.7836)" gradientUnits="userSpaceOnUse" id="SVGID_00000104703740350465094320000007348433727574879406_" node-id="482" x1="1182.6838" x2="1182.6838" y1="1162.513" y2="1066.4093"><stop offset="0" stop-color="#91d3f8"></stop><stop offset="1" stop-color="#d9f3ff"></stop></linearGradient><linearGradient gradientTransform="matrix(0.9989 -0.0468 0.0468 0.9989 -217.8099 81.7836)" gradientUnits="userSpaceOnUse" id="SVGID_00000024688091747253888280000015022622319782092448_" node-id="486" x1="1176.8282" x2="1176.8282" y1="1062.9364" y2="1159.0402"><stop offset="0" stop-color="#91d3f8"></stop><stop offset="0.9944" stop-color="#5a91f7"></stop></linearGradient><linearGradient gradientTransform="matrix(-0.9989 -0.0468 -0.0468 0.9989 4358.1792 81.7836)" gradientUnits="userSpaceOnUse" id="SVGID_00000085252833316769778660000005193894821027221673_" node-id="490" x1="3452.039" x2="3452.039" y1="1129.4806" y2="1033.3768"><stop offset="0" stop-color="#91d3f8"></stop><stop offset="1" stop-color="#d9f3ff"></stop></linearGradient><linearGradient gradientTransform="matrix(-0.9989 -0.0468 -0.0468 0.9989 4358.1792 81.7836)" gradientUnits="userSpaceOnUse" id="SVGID_00000095300564076224385570000011596861041613403801_" node-id="494" x1="3446.1833" x2="3446.1833" y1="1029.904" y2="1126.0077"><stop offset="0" stop-color="#91d3f8"></stop><stop offset="0.9944" stop-color="#5a91f7"></stop></linearGradient></defs><g node-id="876"><path d="M 0.00 2.00 L 2000.00 2.00 L 2000.00 2002.00 L 0.00 2002.00 Z" fill="#ffffff" fill-rule="nonzero" group-id="1" node-id="772" stroke="none" target-height="2000" target-width="2000" target-x="0" target-y="2"></path><g node-id="878"><path d="M 1930.60 810.56 C 1930.60 957.93 1893.16 1099.26 1826.53 1203.46 C 1759.89 1307.67 1669.51 1366.21 1575.27 1366.21 C 1481.03 1366.21 1390.65 1307.67 1324.01 1203.46 C 1257.38 1099.26 1219.94 957.93 1219.94 810.56 C 1219.94 663.19 1257.38 521.86 1324.01 417.66 C 1390.65 313.45 1481.03 254.91 1575.27 254.91 C 1669.51 254.91 1759.89 313.45 1826.53 417.66 C 1893.16 521.86 1930.60 663.19 1930.60 810.56 Z" fill="url(#SVGID_1_)" fill-opacity="0.57" fill-rule="nonzero" group-id="1,3" node-id="776" stroke-linecap="butt" stroke-opacity="0.57" stroke-width="1" target-height="1111.2999" target-width="710.66003" target-x="1219.94" target-y="254.91"></path></g><g node-id="879"><path d="M 1722.35 962.38 C 1722.35 1109.75 1684.91 1251.08 1618.28 1355.28 C 1551.64 1459.49 1461.26 1518.03 1367.02 1518.03 C 1272.78 1518.03 1182.40 1459.49 1115.76 1355.28 C 1049.13 1251.08 1011.69 1109.75 1011.69 962.38 C 1011.69 815.01 1049.13 673.68 1115.76 569.48 C 1182.40 465.27 1272.78 406.73 1367.02 406.73 C 1461.26 406.73 1551.64 465.27 1618.28 569.48 C 1684.91 673.68 1722.35 815.01 1722.35 962.38 Z" fill="url(#SVGID_00000025415860900214967240000011773568818671924915_)" fill-opacity="0.57" fill-rule="nonzero" group-id="1,4" node-id="781" stroke-linecap="butt" stroke-opacity="0.57" stroke-width="1" target-height="1111.3" target-width="710.66" target-x="1011.69" target-y="406.73"></path></g><g node-id="880"><path d="M 306.22 1010.46 L 169.31 1010.46 C 154.66 1010.46 142.78 1022.34 142.78 1036.99 L 142.78 1686.71 C 142.78 1701.36 154.66 1713.24 169.31 1713.24 L 306.22 1713.24 C 320.87 1713.24 332.75 1701.36 332.75 1686.71 L 332.75 1036.99 C 332.75 1022.34 320.87 1010.46 306.22 1010.46 Z M 217.82 1259.60 L 189.50 1259.60 L 189.50 1201.47 L 217.82 1201.47 L 217.82 1259.60 Z M 217.82 1143.33 L 189.50 1143.33 L 189.50 1085.20 L 217.82 1085.20 L 217.82 1143.33 Z" fill="url(#SVGID_00000111877296652808889650000000662602795449253049_)" fill-rule="nonzero" group-id="1,5" node-id="786" stroke="none" target-height="702.77997" target-width="189.97" target-x="142.78" target-y="1010.46"></path><path d="M 663.90 893.16 L 568.40 996.97 L 568.40 1699.75 L 758.37 1699.75 L 758.37 1699.75 L 758.37 996.97 L 663.90 893.16 Z M 641.06 1111.75 L 609.92 1111.75 L 609.92 1047.83 L 641.06 1047.83 L 641.06 1111.75 Z" fill="url(#SVGID_00000077307109789029340110000009518635244801407125_)" fill-rule="nonzero" group-id="1,5" node-id="788" stroke="none" target-height="806.59" target-width="189.96997" target-x="568.4" target-y="893.16"></path><path d="M 555.36 781.05 L 322.95 781.05 C 308.30 781.05 296.42 792.93 296.42 807.58 L 296.42 1548.65 C 296.42 1563.30 308.30 1575.18 322.95 1575.18 L 555.36 1575.18 C 570.01 1575.18 581.89 1563.30 581.89 1548.65 L 581.89 807.57 C 581.89 792.92 570.01 781.05 555.36 781.05 Z M 342.09 860.98 L 381.54 860.98 L 381.54 941.95 L 342.09 941.95 L 342.09 860.98 Z M 419.95 1127.76 L 380.50 1127.76 L 380.50 1046.79 L 419.95 1046.79 L 419.95 1127.76 Z" fill="url(#SVGID_00000019664618117697074670000010104562344620553398_)" fill-rule="nonzero" group-id="1,5" node-id="790" stroke="none" target-height="794.13007" target-width="285.47" target-x="296.42" target-y="781.05"></path></g><g node-id="881"><path d="M 310.46 585.20 C 310.46 553.50 284.82 527.79 253.15 527.68 C 243.39 494.67 212.84 470.59 176.67 470.59 C 145.11 470.59 117.83 488.93 104.90 515.53 C 70.91 516.83 43.75 544.79 43.75 579.10 C 43.75 614.24 72.24 642.73 107.38 642.73 C 107.53 642.73 107.67 642.73 107.82 642.72 L 107.82 643.60 L 253.81 643.60 L 253.81 642.72 C 285.18 642.25 310.46 616.68 310.46 585.20 Z" fill="url(#SVGID_00000163761414115774716570000008381006950797931961_)" fill-rule="nonzero" group-id="1,6" node-id="795" stroke="none" target-height="173.00998" target-width="266.71" target-x="43.75" target-y="470.59"></path></g><g node-id="882"><path d="M 1298.10 197.41 C 1298.10 180.87 1284.69 167.46 1268.15 167.46 C 1266.10 167.46 1264.10 167.67 1262.16 168.06 C 1255.33 156.01 1242.40 147.87 1227.56 147.87 C 1227.17 147.87 1226.79 147.89 1226.41 147.90 C 1225.69 125.19 1207.06 107.01 1184.18 107.01 C 1161.29 107.01 1142.66 125.22 1141.95 147.94 C 1121.03 149.08 1104.41 166.41 1104.41 187.62 C 1104.41 208.44 1120.42 225.51 1140.80 227.21 L 1140.80 227.36 L 1268.44 227.36 L 1268.44 227.35 C 1284.84 227.20 1298.10 213.86 1298.10 197.41 Z" fill="url(#SVGID_00000116950334271561053080000003191866657248381621_)" fill-opacity="0.79" fill-rule="nonzero" group-id="1,7" node-id="800" stroke-linecap="butt" stroke-opacity="0.79" stroke-width="1" target-height="120.35" target-width="193.68994" target-x="1104.41" target-y="107.01"></path></g><g node-id="883"><path d="M 1555.12 1435.54 L 1569.43 1435.54 L 1569.43 1496.84 L 1555.12 1496.84 Z" fill="url(#SVGID_00000167394320701490738560000012997662190237388711_)" fill-rule="nonzero" group-id="1,8" node-id="805" stroke="none" target-height="61.299927" target-width="14.310059" target-x="1555.12" target-y="1435.54"></path><path d="M 1592.51 1372.02 C 1588.06 1359.62 1576.20 1350.75 1562.27 1350.75 C 1546.80 1350.75 1533.89 1361.68 1530.84 1376.24 C 1516.76 1379.64 1506.30 1392.33 1506.30 1407.46 C 1506.30 1425.20 1520.68 1439.58 1538.42 1439.58 C 1539.05 1439.58 1539.68 1439.56 1540.31 1439.52 C 1545.87 1444.14 1553.02 1446.92 1560.81 1446.92 C 1570.64 1446.92 1579.44 1442.50 1585.34 1435.54 C 1585.48 1435.54 1585.63 1435.55 1585.77 1435.55 C 1603.51 1435.55 1617.89 1421.17 1617.89 1403.43 C 1617.89 1388.00 1607.01 1375.12 1592.51 1372.02 Z" fill="url(#SVGID_00000183211429443449610410000006855541994629395094_)" fill-rule="nonzero" group-id="1,8" node-id="807" stroke="none" target-height="96.170044" target-width="111.589966" target-x="1506.3" target-y="1350.75"></path></g><g node-id="884"><path d="M 497.75 1494.91 L 509.82 1494.91 L 509.82 1546.60 L 497.75 1546.60 Z" fill="url(#SVGID_00000047751456538636209270000013058847557836738737_)" fill-rule="nonzero" group-id="1,9" node-id="812" stroke="none" target-height="51.68994" target-width="12.070007" target-x="497.75" target-y="1494.91"></path><path d="M 529.28 1441.35 C 525.53 1430.90 515.53 1423.42 503.78 1423.42 C 490.74 1423.42 479.85 1432.64 477.28 1444.92 C 465.41 1447.79 456.58 1458.49 456.58 1471.24 C 456.58 1486.20 468.70 1498.32 483.66 1498.32 C 484.19 1498.32 484.72 1498.30 485.25 1498.27 C 489.94 1502.17 495.97 1504.51 502.54 1504.51 C 510.83 1504.51 518.25 1500.78 523.22 1494.91 C 523.34 1494.91 523.46 1494.91 523.59 1494.91 C 538.55 1494.91 550.67 1482.79 550.67 1467.83 C 550.68 1454.82 541.51 1443.96 529.28 1441.35 Z" fill="url(#SVGID_00000052090572669294737960000012071537305444677272_)" fill-rule="nonzero" group-id="1,9" node-id="814" stroke="none" target-height="81.089966" target-width="94.09" target-x="456.58" target-y="1423.42"></path></g><g node-id="885"><path d="M 217.14 1793.39 L 235.26 1793.39 L 235.26 1870.99 L 217.14 1870.99 Z" fill="url(#SVGID_00000083781434622128477910000005627321351617417858_)" fill-rule="nonzero" group-id="1,10" node-id="819" stroke="none" target-height="77.599976" target-width="18.119995" target-x="217.14" target-y="1793.39"></path><path d="M 264.48 1712.97 C 258.85 1697.27 243.84 1686.05 226.20 1686.05 C 206.62 1686.05 190.27 1699.89 186.41 1718.32 C 168.58 1722.63 155.34 1738.69 155.34 1757.84 C 155.34 1780.30 173.54 1798.50 196.00 1798.50 C 196.80 1798.50 197.60 1798.47 198.39 1798.43 C 205.43 1804.28 214.48 1807.80 224.35 1807.80 C 236.80 1807.80 247.94 1802.20 255.40 1793.39 C 255.58 1793.39 255.76 1793.40 255.95 1793.40 C 278.41 1793.40 296.61 1775.20 296.61 1752.74 C 296.60 1733.20 282.84 1716.89 264.48 1712.97 Z" fill="url(#SVGID_00000167375896698879316050000002930367887024242080_)" fill-rule="nonzero" group-id="1,10" node-id="821" stroke="none" target-height="121.75" target-width="141.26999" target-x="155.34" target-y="1686.05"></path></g><path d="M 1939.56 2002.00 C 1970.73 1947.92 1987.57 1890.20 1987.57 1830.26 C 1987.57 1523.38 1545.99 1274.61 1001.28 1274.61 C 456.57 1274.61 15.00 1523.38 15.00 1830.26 C 15.00 1890.20 31.85 1947.92 63.01 2002.00 L 1939.56 2002.00 Z" fill="url(#SVGID_00000144309802615987543740000001119437177901291158_)" fill-opacity="0.68" fill-rule="nonzero" group-id="1,11" node-id="826" stroke-linecap="butt" stroke-opacity="0.68" stroke-width="1" target-height="727.39" target-width="1972.57" target-x="15" target-y="1274.61"></path></g><g node-id="877"><g node-id="887"><path d="M 1379.59 1534.20 C 1373.68 1543.57 1370.72 1548.26 1364.80 1557.64 C 1289.40 1555.95 1214.01 1554.26 1138.61 1552.58 C 1142.97 1556.98 1145.15 1559.18 1149.51 1563.59 C 1188.33 1562.68 1227.16 1561.77 1265.98 1560.86 C 1266.97 1570.71 1267.47 1575.64 1268.46 1585.49 C 1284.00 1592.35 1299.54 1599.22 1315.08 1606.08 C 1311.27 1606.17 1309.37 1606.21 1305.56 1606.30 C 1308.92 1607.78 1310.59 1608.52 1313.95 1610.01 C 1275.35 1610.91 1236.75 1611.82 1198.15 1612.72 C 1205.86 1620.51 1213.57 1628.30 1221.29 1636.09 C 1291.05 1637.65 1360.80 1639.21 1430.56 1640.78 C 1453.15 1649.69 1475.73 1658.61 1498.32 1667.52 C 1498.22 1667.68 1498.17 1667.76 1498.07 1667.92 C 1502.55 1669.69 1504.79 1670.57 1509.26 1672.34 C 1503.21 1681.93 1497.16 1691.51 1491.11 1701.10 C 1421.07 1699.53 1351.02 1697.96 1280.98 1696.40 C 1281.05 1696.47 1281.09 1696.51 1281.16 1696.58 C 1282.57 1697.40 1283.27 1697.80 1284.68 1698.62 C 1292.89 1699.85 1297.00 1700.47 1305.22 1701.70 C 1299.45 1702.93 1296.56 1703.55 1290.79 1704.78 C 1290.99 1705.60 1291.10 1706.00 1291.30 1706.82 C 1295.55 1711.11 1297.67 1713.25 1301.91 1717.54 C 1272.72 1717.54 1243.54 1717.54 1214.35 1717.54 C 1214.11 1717.30 1213.99 1717.18 1213.75 1716.94 C 1208.82 1716.94 1206.35 1716.94 1201.42 1716.94 C 1193.89 1709.33 1186.36 1701.72 1178.82 1694.11 C 1094.56 1692.22 1010.31 1690.34 926.05 1688.45 C 926.57 1686.63 926.83 1685.72 927.34 1683.90 C 922.45 1683.79 920.00 1683.74 915.11 1683.63 C 917.99 1673.52 919.42 1668.47 922.30 1658.36 C 903.37 1648.28 884.43 1638.21 865.50 1628.13 C 950.04 1630.02 1034.59 1631.92 1119.13 1633.81 C 1111.69 1626.29 1107.97 1622.53 1100.52 1615.01 C 1025.00 1616.78 949.47 1618.55 873.95 1620.32 C 853.56 1612.51 833.17 1604.70 812.77 1596.88 C 813.57 1595.44 813.97 1594.72 814.77 1593.28 C 814.43 1593.15 814.25 1593.08 813.91 1592.95 C 818.74 1584.23 821.16 1579.88 825.99 1571.16 C 901.29 1569.40 976.59 1567.63 1051.89 1565.87 C 1045.72 1559.64 1042.64 1556.52 1036.47 1550.29 C 992.45 1549.30 948.43 1548.32 904.41 1547.33 C 904.83 1545.85 905.04 1545.11 905.46 1543.62 C 901.47 1543.53 899.48 1543.49 895.49 1543.40 C 897.83 1535.16 899.01 1531.05 901.35 1522.81 C 885.92 1514.60 870.49 1506.39 855.07 1498.18 C 899.32 1499.17 943.58 1500.16 987.83 1501.15 C 955.84 1468.83 923.84 1436.50 891.85 1404.18 C 921.04 1404.18 950.22 1404.18 979.41 1404.18 C 979.65 1404.42 979.77 1404.54 980.01 1404.78 C 984.94 1404.78 987.41 1404.78 992.34 1404.78 C 1024.89 1437.67 1057.44 1470.55 1089.99 1503.44 C 1165.15 1505.12 1240.31 1506.81 1315.48 1508.49 C 1333.88 1515.75 1352.29 1523.02 1370.69 1530.28 C 1370.61 1530.41 1370.57 1530.48 1370.48 1530.61 C 1374.12 1532.04 1375.94 1532.76 1379.59 1534.20 Z" fill="url(#SVGID_00000095334582797391000240000011839819585174561427_)" fill-rule="nonzero" group-id="2,12" node-id="833" stroke="none" target-height="313.36" target-width="696.49" target-x="812.77" target-y="1404.18"></path></g><g node-id="888"><path d="M 889.09 708.49 L 984.13 708.49 L 984.13 1403.21 L 889.09 1403.21 Z" fill="url(#SVGID_00000037678420184233751820000008830931247439187587_)" fill-rule="nonzero" group-id="2,13" node-id="838" stroke="none" target-height="694.72" target-width="95.03998" target-x="889.09" target-y="708.49"></path><path d="M 902.47 707.16 L 997.51 707.16 L 997.51 1401.88 L 902.47 1401.88 Z" fill="url(#SVGID_00000182529002823789650450000008306268226340898456_)" fill-rule="nonzero" group-id="2,13" node-id="840" stroke="none" target-height="694.72003" target-width="95.04004" target-x="902.47" target-y="707.16"></path><path d="M 1226.32 866.96 L 626.58 895.06 L 655.76 827.91 L 620.81 771.78 L 1220.54 743.68 L 1271.15 807.57 Z" fill="url(#SVGID_00000071545220848811022560000014756152793422043786_)" fill-rule="nonzero" group-id="2,13" node-id="842" stroke="none" target-height="151.38" target-width="650.34" target-x="620.81" target-y="743.68"></path><path d="M 1219.63 877.67 L 619.89 905.77 L 649.07 838.62 L 614.11 782.49 L 1213.85 754.39 L 1264.45 818.27 Z" fill="url(#SVGID_00000054253144971357306100000001306306061867522973_)" fill-rule="nonzero" group-id="2,13" node-id="844" stroke="none" target-height="151.38" target-width="650.33997" target-x="614.11" target-y="754.39"></path><path d="M 1242.29 1162.79 L 753.64 1185.68 L 777.41 1130.97 L 748.93 1085.23 L 1237.58 1062.34 L 1278.81 1114.39 Z" fill="url(#SVGID_00000104703740350465094320000007348433727574879406_)" fill-rule="nonzero" group-id="2,13" node-id="846" stroke="none" target-height="123.34009" target-width="529.88007" target-x="748.93" target-y="1062.34"></path><path d="M 1236.84 1171.51 L 748.18 1194.41 L 771.96 1139.69 L 743.48 1093.96 L 1232.13 1071.06 L 1273.36 1123.12 Z" fill="url(#SVGID_00000024688091747253888280000015022622319782092448_)" fill-rule="nonzero" group-id="2,13" node-id="848" stroke="none" target-height="123.349976" target-width="529.88" target-x="743.48" target-y="1071.06"></path><path d="M 632.76 1023.58 L 1121.41 1046.47 L 1097.64 991.76 L 1126.12 946.02 L 637.46 923.13 L 596.23 975.18 Z" fill="url(#SVGID_00000085252833316769778660000005193894821027221673_)" fill-rule="nonzero" group-id="2,13" node-id="850" stroke="none" target-height="123.339966" target-width="529.89" target-x="596.23" target-y="923.13"></path><path d="M 638.21 1032.30 L 1126.87 1055.20 L 1103.09 1000.48 L 1131.57 954.75 L 642.92 931.85 L 601.69 983.91 Z" fill="url(#SVGID_00000095300564076224385570000011596861041613403801_)" fill-rule="nonzero" group-id="2,13" node-id="852" stroke="none" target-height="123.349976" target-width="529.87994" target-x="601.69" target-y="931.85"></path><path d="M 1077.73 800.54 C 1067.81 801.01 1059.39 793.34 1058.92 783.42 C 1058.45 773.50 1066.12 765.08 1076.04 764.61 C 1085.96 764.14 1094.39 771.81 1094.85 781.73 C 1095.30 791.65 1087.64 800.06 1077.73 800.54 L 1077.73 800.54 Z M 1076.34 770.97 C 1069.93 771.27 1064.97 776.72 1065.28 783.13 C 1065.58 789.54 1071.03 794.50 1077.44 794.19 C 1083.85 793.89 1088.81 788.44 1088.50 782.03 C 1088.18 775.62 1082.75 770.67 1076.34 770.97 L 1076.34 770.97 Z M 1076.34 770.97" fill="#e9f1ff" fill-rule="nonzero" group-id="2,13" node-id="854" stroke="none" target-height="35.929993" target-width="35.92993" target-x="1058.92" target-y="764.61"></path><path d="M 1060.47 870.81 L 823.06 882.00 C 808.15 882.70 795.49 871.18 794.78 856.27 L 792.91 816.56 C 792.21 801.65 803.73 788.99 818.64 788.28 L 1047.19 777.51 C 1048.94 777.43 1050.43 778.78 1050.52 780.54 C 1050.60 782.29 1049.25 783.78 1047.49 783.87 L 818.90 794.64 C 807.50 795.18 798.69 804.86 799.22 816.26 L 801.09 855.97 C 801.63 867.37 811.31 876.18 822.71 875.65 L 1060.12 864.46 C 1065.60 864.20 1070.75 861.78 1074.44 857.72 C 1078.13 853.66 1080.06 848.31 1079.80 842.83 L 1078.35 812.16 C 1078.27 810.41 1079.62 808.92 1081.38 808.83 C 1083.13 808.75 1084.62 810.10 1084.71 811.86 L 1086.16 842.55 C 1086.85 857.45 1075.36 870.09 1060.47 870.81 L 1060.47 870.81 Z M 1060.47 870.81" fill="#e9f1ff" fill-rule="nonzero" group-id="2,13" node-id="856" stroke="none" target-height="104.48999" target-width="293.25006" target-x="792.91" target-y="777.51"></path><path d="M 826.10 836.98 L 820.38 835.99 L 821.21 831.25 L 827.18 832.27 L 826.96 827.54 L 831.78 827.31 L 832.00 832.04 L 837.89 830.46 L 839.16 835.10 L 833.55 836.62 L 837.56 840.77 L 834.11 844.14 L 829.98 839.87 L 826.26 844.51 L 822.47 841.49 L 826.10 836.98 Z" fill="#e9f1ff" fill-rule="nonzero" group-id="2,13" node-id="858" stroke="none" target-height="17.200012" target-width="18.779968" target-x="820.38" target-y="827.31"></path><path d="M 870.20 834.91 L 864.48 833.92 L 865.31 829.18 L 871.28 830.20 L 871.06 825.47 L 875.88 825.24 L 876.10 829.97 L 881.99 828.39 L 883.26 833.03 L 877.65 834.55 L 881.66 838.70 L 878.21 842.07 L 874.08 837.80 L 870.36 842.44 L 866.57 839.42 L 870.20 834.91 Z" fill="#e9f1ff" fill-rule="nonzero" group-id="2,13" node-id="860" stroke="none" target-height="17.200012" target-width="18.78003" target-x="864.48" target-y="825.24"></path><path d="M 914.31 832.83 L 908.59 831.84 L 909.42 827.10 L 915.39 828.12 L 915.17 823.39 L 919.99 823.16 L 920.21 827.89 L 926.10 826.31 L 927.37 830.95 L 921.76 832.47 L 925.77 836.62 L 922.32 839.99 L 918.19 835.72 L 914.47 840.36 L 910.68 837.34 L 914.31 832.83 Z" fill="#e9f1ff" fill-rule="nonzero" group-id="2,13" node-id="862" stroke="none" target-height="17.200012" target-width="18.779968" target-x="908.59" target-y="823.16"></path><path d="M 958.41 830.75 L 952.69 829.76 L 953.52 825.02 L 959.49 826.04 L 959.27 821.31 L 964.09 821.08 L 964.31 825.81 L 970.20 824.23 L 971.47 828.87 L 965.86 830.39 L 969.87 834.54 L 966.42 837.91 L 962.29 833.64 L 958.57 838.28 L 954.78 835.26 L 958.41 830.75 Z" fill="#e9f1ff" fill-rule="nonzero" group-id="2,13" node-id="864" stroke="none" target-height="17.200012" target-width="18.779968" target-x="952.69" target-y="821.08"></path><path d="M 1002.51 828.67 L 996.79 827.68 L 997.62 822.94 L 1003.59 823.96 L 1003.37 819.23 L 1008.19 819.00 L 1008.41 823.73 L 1014.30 822.15 L 1015.57 826.79 L 1009.96 828.31 L 1013.97 832.46 L 1010.52 835.83 L 1006.39 831.56 L 1002.67 836.20 L 998.88 833.18 L 1002.51 828.67 Z" fill="#e9f1ff" fill-rule="nonzero" group-id="2,13" node-id="866" stroke="none" target-height="17.200012" target-width="18.78003" target-x="996.79" target-y="819"></path><path d="M 1046.62 826.59 L 1040.90 825.60 L 1041.73 820.86 L 1047.70 821.88 L 1047.48 817.15 L 1052.30 816.92 L 1052.52 821.65 L 1058.41 820.07 L 1059.68 824.71 L 1054.07 826.23 L 1058.08 830.38 L 1054.63 833.75 L 1050.50 829.48 L 1046.78 834.12 L 1042.99 831.10 L 1046.62 826.59 Z" fill="#e9f1ff" fill-rule="nonzero" group-id="2,13" node-id="868" stroke="none" target-height="17.200012" target-width="18.78003" target-x="1040.9" target-y="816.92"></path><path d="M 992.30 716.53 L 999.15 735.50 L 1018.12 742.35 L 999.15 749.20 L 992.30 768.18 L 985.45 749.20 L 966.47 742.35 L 985.45 735.50 Z" fill="#ffffff" fill-rule="nonzero" group-id="2,13" node-id="870" stroke="none" target-height="51.649963" target-width="51.650024" target-x="966.47" target-y="716.53"></path><path d="M 905.42 881.42 L 909.75 893.42 L 921.75 897.75 L 909.75 902.08 L 905.42 914.08 L 901.09 902.08 L 889.09 897.75 L 901.09 893.42 Z" fill="#ffffff" fill-rule="nonzero" group-id="2,13" node-id="872" stroke="none" target-height="32.660034" target-width="32.659973" target-x="889.09" target-y="881.42"></path><path d="M 936.20 917.56 L 940.53 929.56 L 952.53 933.89 L 940.53 938.22 L 936.20 950.22 L 931.87 938.22 L 919.88 933.89 L 931.87 929.56 Z" fill="#ffffff" fill-rule="nonzero" group-id="2,13" node-id="874" stroke="none" target-height="32.659973" target-width="32.650024" target-x="919.88" target-y="917.56"></path></g></g></svg>