<?xml version="1.0" standalone="no"?><!DOCTYPE svg PUBLIC "-//W3C//DTD SVG 1.1//EN" "http://www.w3.org/Graphics/SVG/1.1/DTD/svg11.dtd"><svg height="1024" legacy-metrics="false" node-id="1" sillyvg="true" template-height="1024" template-width="1024" version="1.1" viewBox="0 0 1024 1024" width="1024" xmlns="http://www.w3.org/2000/svg" xmlns:xlink="http://www.w3.org/1999/xlink"><defs node-id="164"><linearGradient gradientUnits="objectBoundingBox" id="linearGradient-1" node-id="5" x1="0.5" x2="0.5" y1="1" y2="-0.0000000000000002471453"><stop offset="0" stop-color="#ffffff" stop-opacity="0.1"></stop><stop offset="0.13" stop-color="#fbfdff" stop-opacity="0.19"></stop><stop offset="0.41" stop-color="#f1f7ff" stop-opacity="0.43"></stop><stop offset="0.81" stop-color="#e1eeff" stop-opacity="0.82"></stop><stop offset="1" stop-color="#d9e9ff"></stop></linearGradient><linearGradient gradientUnits="objectBoundingBox" id="linearGradient-2" node-id="11" x1="0.5" x2="0.5" y1="1.002219" y2="0.0007036488"><stop offset="0" stop-color="#ffffff" stop-opacity="0.1"></stop><stop offset="1" stop-color="#d9e9ff"></stop></linearGradient><linearGradient gradientUnits="objectBoundingBox" id="linearGradient-3" node-id="14" x1="0.500936" x2="0.500936" y1="1" y2="0.000069385685"><stop offset="0" stop-color="#ffffff" stop-opacity="0.1"></stop><stop offset="0.14" stop-color="#f8fbff" stop-opacity="0.27"></stop><stop offset="0.37" stop-color="#edf5ff" stop-opacity="0.52"></stop><stop offset="0.58" stop-color="#e4f0ff" stop-opacity="0.73"></stop><stop offset="0.76" stop-color="#deecff" stop-opacity="0.88"></stop><stop offset="0.91" stop-color="#daeaff" stop-opacity="0.97"></stop><stop offset="1" stop-color="#d9e9ff"></stop></linearGradient><linearGradient gradientUnits="objectBoundingBox" id="linearGradient-4" node-id="22" x1="0.49983978" x2="0.49983978" y1="0.999312" y2="-0.00081127736"><stop offset="0" stop-color="#ffffff" stop-opacity="0.1"></stop><stop offset="0.09" stop-color="#fefeff" stop-opacity="0.13"></stop><stop offset="0.23" stop-color="#fbfcff" stop-opacity="0.21"></stop><stop offset="0.4" stop-color="#f5f9ff" stop-opacity="0.33"></stop><stop offset="0.59" stop-color="#eef5ff" stop-opacity="0.51"></stop><stop offset="0.79" stop-color="#e4efff" stop-opacity="0.74"></stop><stop offset="1" stop-color="#d9e9ff"></stop></linearGradient><linearGradient gradientUnits="objectBoundingBox" id="linearGradient-5" node-id="30" x1="0" x2="1" y1="0.49953833" y2="0.49953833"><stop offset="0" stop-color="#eeeeee"></stop><stop offset="0.03" stop-color="#dddddd"></stop><stop offset="1" stop-color="#d8d8d8"></stop></linearGradient><linearGradient gradientUnits="objectBoundingBox" id="linearGradient-6" node-id="34" x1="-0.0000000000000013743573" x2="1" y1="0.49949545" y2="0.49949545"><stop offset="0" stop-color="#eeeeee"></stop><stop offset="0.03" stop-color="#b4d7fe"></stop><stop offset="1" stop-color="#b0d3fa"></stop></linearGradient><linearGradient gradientUnits="objectBoundingBox" id="linearGradient-7" node-id="38" x1="-0.0000000000000019216842" x2="1" y1="0.5" y2="0.5"><stop offset="0" stop-color="#b2d5fc"></stop><stop offset="0.03" stop-color="#dddddd"></stop><stop offset="1" stop-color="#a8d2ff"></stop></linearGradient><linearGradient gradientUnits="objectBoundingBox" id="linearGradient-8" node-id="42" x1="0.09286912" x2="0.7864169" y1="0.5" y2="0.51200986"><stop offset="0" stop-color="#afd5fe"></stop><stop offset="0.052418754" stop-color="#99cafd"></stop><stop offset="1" stop-color="#b5d4f6"></stop></linearGradient><linearGradient gradientUnits="objectBoundingBox" id="linearGradient-9" node-id="46" x1="0" x2="1" y1="0.50541514" y2="0.50541514"><stop offset="0" stop-color="#eeeeee"></stop><stop offset="0.03" stop-color="#b2d4f8"></stop><stop offset="1" stop-color="#b2d4fa"></stop></linearGradient><linearGradient gradientUnits="objectBoundingBox" id="linearGradient-10" node-id="50" x1="0" x2="1" y1="0.5" y2="0.5"><stop offset="0" stop-color="#eeeeee"></stop><stop offset="0.03" stop-color="#dddddd"></stop><stop offset="1" stop-color="#d8d8d8"></stop></linearGradient><linearGradient gradientUnits="objectBoundingBox" id="linearGradient-11" node-id="54" x1="-0.0011750881" x2="1.0019585" y1="0.50069326" y2="0.50069326"><stop offset="0" stop-color="#97c9fd"></stop><stop offset="0.063881345" stop-color="#4199f3"></stop><stop offset="1" stop-color="#3f9cfc"></stop></linearGradient><linearGradient gradientUnits="objectBoundingBox" id="linearGradient-12" node-id="58" x1="-0.0000000000000012913089" x2="1" y1="0.49964106" y2="0.49964106"><stop offset="0" stop-color="#eeeeee"></stop><stop offset="0.03" stop-color="#dddddd"></stop><stop offset="1" stop-color="#d8d8d8"></stop></linearGradient><linearGradient gradientUnits="objectBoundingBox" id="linearGradient-13" node-id="62" x1="-0.0000000000000012913089" x2="1" y1="0.49964106" y2="0.49964106"><stop offset="0" stop-color="#68aff7"></stop><stop offset="0.51830614" stop-color="#6bb1f8"></stop><stop offset="1" stop-color="#6bb1f7"></stop></linearGradient><linearGradient gradientUnits="objectBoundingBox" id="linearGradient-14" node-id="66" x1="0" x2="0.9999323" y1="0.5" y2="0.5"><stop offset="0" stop-color="#eeeeee"></stop><stop offset="1" stop-color="#d8d8d8"></stop></linearGradient><linearGradient gradientUnits="objectBoundingBox" id="linearGradient-15" node-id="69" x1="0.30907866" x2="0.7549802" y1="0.4850446" y2="0.7307428"><stop offset="0" stop-color="#5fabf8"></stop><stop offset="1" stop-color="#6eb2f7"></stop></linearGradient><linearGradient gradientUnits="objectBoundingBox" id="linearGradient-16" node-id="72" x1="-0.0018800526" x2="0.99924797" y1="0.50114095" y2="0.50114095"><stop offset="0" stop-color="#5babfc"></stop><stop offset="1" stop-color="#459ffb"></stop></linearGradient><linearGradient gradientUnits="objectBoundingBox" id="linearGradient-17" node-id="75" x1="-0.0000070445976" x2="1" y1="0.5000493" y2="0.5000493"><stop offset="0" stop-color="#96c5f4"></stop><stop offset="1" stop-color="#3f9cfa"></stop></linearGradient><linearGradient gradientUnits="objectBoundingBox" id="linearGradient-18" node-id="78" x1="0.37627855" x2="0.6237215" y1="0.23066665" y2="0.88276166"><stop offset="0" stop-color="#c4daf1"></stop><stop offset="1" stop-color="#5daaf8"></stop></linearGradient><linearGradient gradientUnits="objectBoundingBox" id="linearGradient-19" node-id="81" x1="-0.002352201" x2="0.9996854" y1="0.49919412" y2="0.49919412"><stop offset="0" stop-color="#c4daf1"></stop><stop offset="1" stop-color="#3497fb"></stop></linearGradient><linearGradient gradientUnits="objectBoundingBox" id="linearGradient-20" node-id="84" x1="0.0000000000000037421606" x2="1.0019749" y1="0.49945593" y2="0.49945593"><stop offset="0" stop-color="#87bdf5"></stop><stop offset="1" stop-color="#6ab2fd"></stop></linearGradient><linearGradient gradientUnits="objectBoundingBox" id="linearGradient-21" node-id="87" x1="-0.0000000000000009364649" x2="0.85432035" y1="0.5" y2="0.51332146"><stop offset="0" stop-color="#97c9fd"></stop><stop offset="1" stop-color="#54a7fc"></stop></linearGradient><linearGradient gradientUnits="objectBoundingBox" id="linearGradient-22" node-id="90" x1="0" x2="1" y1="0.5" y2="0.5"><stop offset="0" stop-color="#79bafd"></stop><stop offset="1" stop-color="#57a9fc"></stop></linearGradient><linearGradient gradientUnits="objectBoundingBox" id="linearGradient-23" node-id="93" x1="-0.0000000000000018254149" x2="1" y1="0.4979662" y2="0.4979662"><stop offset="0" stop-color="#69b2fc"></stop><stop offset="1" stop-color="#54a7fc"></stop></linearGradient><linearGradient gradientUnits="objectBoundingBox" id="linearGradient-24" node-id="96" x1="0" x2="1" y1="0.49808916" y2="0.49808916"><stop offset="0" stop-color="#eeeeee"></stop><stop offset="1" stop-color="#d8d8d8"></stop></linearGradient><linearGradient gradientUnits="objectBoundingBox" id="linearGradient-25" node-id="99" x1="0" x2="1" y1="0.50324255" y2="0.50324255"><stop offset="0" stop-color="#eeeeee"></stop><stop offset="1" stop-color="#d8d8d8"></stop></linearGradient><linearGradient gradientUnits="objectBoundingBox" id="linearGradient-26" node-id="102" x1="-0.0000033421643" x2="0.9999563" y1="0.50022566" y2="0.50022566"><stop offset="0" stop-color="#3597fb"></stop><stop offset="1" stop-color="#b9dafe"></stop></linearGradient></defs><path d="M 0.00 0.00 L 1024.00 0.00 L 1024.00 1024.00 L 0.00 1024.00 Z" fill="#ffffff" fill-rule="evenodd" node-id="368" stroke="none" target-height="1024" target-width="1024" target-x="0" target-y="0"></path><g node-id="445"><path d="M 0.00 0.00 L 1024.00 0.00 L 1024.00 1024.00 L 0.00 1024.00 Z" fill="#d8d8d8" fill-opacity="0" fill-rule="nonzero" group-id="1" id="矩形" node-id="107" stroke-linecap="butt" stroke-opacity="0" stroke-width="1" target-height="1024" target-width="1024" target-x="0" target-y="0"></path></g><path d="M 1023.00 740.00 C 1023.00 782.70 969.11 823.65 873.19 853.84 C 777.26 884.04 647.16 901.00 511.50 901.00 C 375.84 901.00 245.74 884.04 149.81 853.84 C 53.89 823.65 -0.00 782.70 -0.00 740.00 C -0.00 697.30 53.89 656.35 149.81 626.16 C 245.74 595.96 375.84 579.00 511.50 579.00 C 647.16 579.00 777.26 595.96 873.19 626.16 C 969.11 656.35 1023.00 697.30 1023.00 740.00 Z" fill="url(#linearGradient-1)" fill-rule="nonzero" id="椭圆形" node-id="108" stroke="none" target-height="322" target-width="1023" target-x="0" target-y="579"></path><path d="M 199.69 592.00 L 204.00 640.00 L 177.00 636.84 Z" fill="#e4efff" fill-rule="nonzero" id="路径" node-id="109" stroke="none" target-height="48" target-width="27" target-x="177" target-y="592"></path><path d="M 200.00 592.00 L 230.00 629.89 L 204.55 640.00 Z" fill="#f3f8ff" fill-rule="nonzero" id="路径" node-id="110" stroke="none" target-height="48" target-width="30" target-x="200" target-y="592"></path><path d="M 99.47 605.00 L 105.00 666.00 L 71.00 661.93 Z" fill="#e4efff" fill-rule="nonzero" id="路径" node-id="111" stroke="none" target-height="61" target-width="34" target-x="71" target-y="605"></path><path d="M 99.00 605.00 L 138.00 653.23 L 105.00 666.00 Z" fill="#f3f8ff" fill-rule="nonzero" id="路径" node-id="112" stroke="none" target-height="61" target-width="39" target-x="99" target-y="605"></path><path d="M 147.63 562.00 L 157.00 665.00 L 94.00 658.58 Z" fill="#e4efff" fill-rule="nonzero" id="路径" node-id="113" stroke="none" target-height="103" target-width="63" target-x="94" target-y="562"></path><path d="M 147.00 562.00 L 214.00 642.94 L 156.53 665.00 Z" fill="#f3f8ff" fill-rule="nonzero" id="路径" node-id="114" stroke="none" target-height="103" target-width="67" target-x="147" target-y="562"></path><path d="M 167.23 341.22 C 163.48 321.75 146.09 307.74 125.99 308.00 C 115.20 307.94 104.78 311.90 96.82 319.08 C 92.30 317.15 87.41 316.20 82.48 316.31 C 67.03 316.04 53.46 326.40 49.86 341.22 C 37.93 343.82 29.33 354.10 29.00 366.14 C 29.46 380.79 41.82 392.33 56.68 391.99 L 160.32 391.99 C 175.18 392.33 187.54 380.79 188.00 366.14 C 187.69 354.12 179.13 343.85 167.23 341.22 L 167.23 341.22 Z" fill="url(#linearGradient-2)" fill-rule="nonzero" id="路径" node-id="115" stroke="none" target-height="83.98886" target-width="159" target-x="29" target-y="308.00375"></path><path d="M 767.89 204.34 C 762.54 196.12 753.47 191.01 743.62 190.67 C 737.90 181.98 728.09 176.82 717.64 177.00 C 709.25 176.92 701.19 180.19 695.26 186.09 C 692.55 185.23 689.72 184.79 686.87 184.78 C 673.70 184.78 662.79 193.84 661.70 205.28 C 651.66 207.66 644.43 216.37 644.00 226.61 C 644.00 238.95 655.38 249.00 669.17 249.00 L 765.83 249.00 C 779.81 249.00 791.00 238.95 791.00 226.61 C 791.25 214.89 780.90 205.20 767.89 204.34 Z" fill="url(#linearGradient-3)" fill-rule="nonzero" id="路径" node-id="116" stroke="none" target-height="71.99501" target-width="146.99548" target-x="644" target-y="177.00499"></path><path d="M 948.38 171.74 C 938.85 152.17 918.95 139.71 897.10 139.64 C 884.93 139.67 873.09 143.60 863.34 150.85 C 851.74 128.31 826.54 116.17 801.59 121.08 C 776.65 126.00 757.99 146.79 755.89 172.02 C 729.05 180.46 712.40 207.11 716.67 234.81 C 720.93 262.51 744.85 282.97 772.99 283.00 L 931.87 283.00 C 960.17 283.05 984.23 262.42 988.38 234.55 C 992.53 206.67 975.51 179.98 948.41 171.85 L 948.38 171.74 Z" fill="url(#linearGradient-4)" fill-rule="nonzero" id="路径" node-id="117" stroke="none" target-height="162.97498" target-width="272.9367" target-x="716.02576" target-y="120.025024"></path><path d="M 904.00 605.00 L 899.15 669.00 L 863.00 658.52 Z" fill="#e4efff" fill-rule="nonzero" id="路径" node-id="118" stroke="none" target-height="64" target-width="41" target-x="863" target-y="605"></path><path d="M 903.82 605.00 L 934.00 661.39 L 899.00 669.00 Z" fill="#f3f8ff" fill-rule="nonzero" id="路径" node-id="119" stroke="none" target-height="64" target-width="35" target-x="899" target-y="605"></path><path d="M 659.21 587.44 L 661.20 587.79 L 662.62 588.31 L 663.61 588.97 L 664.70 590.34 L 665.23 591.97 L 665.33 593.78 L 665.13 595.73 L 664.37 599.53 L 664.08 601.30 L 664.03 602.66 L 664.36 604.90 L 664.91 607.34 L 666.15 611.55 L 666.78 613.38 L 656.45 615.06 L 656.33 614.09 L 656.10 611.95 L 656.01 609.78 L 655.78 608.58 L 655.10 607.80 L 654.05 607.37 L 652.47 607.28 L 651.53 607.03 L 650.84 606.24 L 650.39 605.16 L 650.09 603.99 L 649.72 602.32 L 649.32 601.83 L 648.77 601.59 L 647.67 601.29 L 647.36 601.00 L 647.34 600.37 L 648.05 598.96 L 649.02 597.20 L 649.38 595.98 L 649.63 594.08 L 649.87 592.74 L 650.37 591.53 L 651.14 590.42 L 652.67 589.06 L 654.62 588.04 L 656.80 587.49 L 659.21 587.44 Z" fill="#fecca9" fill-rule="nonzero" group-id="2,3,5,8" id="路径" node-id="124" stroke-linecap="butt" stroke-width="1" target-height="27.61621" target-width="19.436768" target-x="647.3417" target-y="587.4405"></path><path d="M 653.05 607.27 L 654.52 607.50 L 655.45 608.10 L 656.54 605.89 L 654.61 606.84 L 653.05 607.27 Z" fill="#cd916a" fill-rule="nonzero" group-id="2,3,5,8" id="路径" node-id="125" stroke-linecap="butt" stroke-width="1" target-height="2.2131958" target-width="3.4956055" target-x="653.04755" target-y="605.88617"></path><path d="M 656.54 580.79 L 660.23 580.58 L 663.02 580.83 L 665.10 581.42 L 667.03 582.43 L 668.50 583.61 L 669.61 584.98 L 670.87 587.31 L 671.72 589.65 L 672.45 591.92 L 673.13 593.62 L 673.75 594.51 L 674.52 594.99 L 675.51 595.11 L 677.51 594.76 L 678.38 594.44 L 678.98 594.01 L 678.84 594.81 L 678.21 596.66 L 677.62 597.70 L 676.75 598.74 L 678.11 598.85 L 679.49 598.77 L 679.27 600.13 L 678.91 601.46 L 678.20 603.18 L 677.19 604.83 L 675.70 606.38 L 674.50 607.20 L 673.01 607.81 L 671.16 608.20 L 668.52 608.21 L 666.61 607.78 L 664.99 606.94 L 663.82 605.90 L 662.94 604.65 L 662.37 603.42 L 661.09 603.48 L 659.66 603.30 L 658.31 602.78 L 657.07 601.78 L 656.44 600.90 L 655.94 599.66 L 655.60 597.96 L 654.99 594.06 L 654.34 591.62 L 652.76 591.88 L 651.69 592.19 L 650.00 592.80 L 649.25 592.91 L 648.36 592.78 L 647.36 590.65 L 647.03 588.80 L 647.25 587.13 L 647.94 585.56 L 649.02 584.16 L 650.55 582.91 L 652.30 581.96 L 654.29 581.24 L 656.54 580.79 Z" fill="#003a8c" fill-rule="nonzero" group-id="2,3,5" id="Path" node-id="126" stroke-linecap="butt" stroke-width="1" target-height="27.635254" target-width="32.46277" target-x="647.0282" target-y="580.5784"></path><path d="M 697.79 738.90 L 697.64 737.66 L 696.93 735.32 L 694.44 729.37 L 700.75 726.27 L 701.48 729.56 L 702.30 732.94 L 703.33 736.03 L 703.84 738.03 L 703.70 738.60 L 703.14 739.68 L 701.52 742.09 L 699.88 744.25 L 699.13 745.19 L 695.57 744.87 L 696.07 744.31 L 696.52 743.64 L 697.07 742.43 L 697.49 741.00 L 697.79 738.90 Z" fill="#fecca9" fill-rule="nonzero" group-id="2,3" id="Path" node-id="127" stroke-linecap="butt" stroke-width="1" target-height="18.919678" target-width="9.395691" target-x="694.44183" target-y="726.2731"></path><path d="M 649.86 741.66 L 650.39 740.11 L 650.82 736.69 L 651.09 727.68 L 659.09 727.68 L 656.66 738.51 L 656.11 741.73 L 655.61 743.73 L 655.23 744.17 L 654.22 744.86 L 651.65 746.23 L 649.18 747.37 L 648.08 747.85 L 645.08 745.90 L 645.79 745.65 L 646.50 745.26 L 647.56 744.45 L 648.61 743.38 L 649.86 741.66 Z" fill="#fecca9" fill-rule="nonzero" group-id="2,3" id="Path" node-id="128" stroke-linecap="butt" stroke-width="1" target-height="20.172302" target-width="14.0095825" target-x="645.0824" target-y="727.68036"></path><path d="M 692.62 749.23 L 692.95 749.48 L 693.58 749.56 L 694.94 749.39 L 695.63 749.22 L 703.16 745.24 L 703.68 744.85 L 704.04 744.34 L 704.23 743.74 L 704.22 743.09 L 703.97 740.85 L 704.06 739.86 L 704.32 739.47 L 704.79 739.55 L 705.52 740.20 L 706.82 741.98 L 707.43 742.98 L 708.91 742.20 L 708.45 741.47 L 707.44 739.87 L 706.50 738.32 L 706.14 737.17 L 706.06 736.00 L 705.55 734.50 L 704.68 733.31 L 703.71 732.51 L 702.70 732.06 L 702.12 732.08 L 701.93 732.43 L 701.83 733.42 L 701.82 735.91 L 701.76 737.22 L 701.58 738.21 L 700.91 739.83 L 699.89 741.35 L 698.49 742.61 L 696.51 743.64 L 696.04 744.01 L 695.08 745.05 L 693.28 747.51 L 692.67 748.71 L 692.62 749.23 Z" fill="#001529" fill-rule="nonzero" group-id="2,3" id="Path" node-id="129" stroke-linecap="butt" stroke-width="1" target-height="17.50769" target-width="16.29071" target-x="692.6218" target-y="732.0572"></path><path d="M 640.42 748.38 L 640.60 748.76 L 641.11 749.12 L 642.40 749.60 L 643.09 749.77 L 651.61 749.77 L 652.26 749.67 L 652.82 749.39 L 653.26 748.95 L 653.56 748.37 L 654.40 746.28 L 654.94 745.45 L 655.36 745.22 L 655.74 745.51 L 656.08 746.43 L 656.38 748.61 L 656.45 749.78 L 658.13 749.78 L 658.06 748.91 L 657.93 747.03 L 657.82 745.22 L 658.05 744.05 L 658.53 742.97 L 658.80 741.41 L 658.59 739.95 L 658.11 738.80 L 657.43 737.92 L 656.91 737.68 L 656.58 737.89 L 656.02 738.72 L 654.84 740.92 L 654.16 742.04 L 653.53 742.83 L 652.18 743.96 L 650.56 744.81 L 648.73 745.27 L 646.49 745.26 L 645.90 745.36 L 644.57 745.84 L 641.82 747.17 L 640.71 747.94 L 640.42 748.38 Z" fill="#001529" fill-rule="nonzero" group-id="2,3" id="Path" node-id="130" stroke-linecap="butt" stroke-width="1" target-height="12.099487" target-width="18.374756" target-x="640.4222" target-y="737.6758"></path><path d="M 667.67 651.46 L 666.12 654.06 L 662.33 660.78 L 657.60 670.01 L 655.28 675.07 L 653.22 680.11 L 651.54 685.11 L 650.51 689.46 L 648.90 698.76 L 647.11 708.90 L 645.45 718.22 L 644.22 725.04 L 643.75 727.68 L 666.78 729.58 L 666.74 726.82 L 666.96 719.48 L 667.32 714.69 L 667.97 708.97 L 668.91 703.05 L 670.28 696.71 L 672.10 689.94 L 673.96 683.80 L 677.34 673.43 L 678.57 669.37 L 679.05 667.20 L 678.90 665.88 L 678.10 663.76 L 676.91 661.56 L 675.29 659.08 L 673.46 656.68 L 671.52 654.51 L 669.47 652.65 L 667.67 651.46 Z" fill="#143e81" fill-rule="nonzero" group-id="2,3" id="Path" node-id="131" stroke-linecap="butt" stroke-width="1" target-height="78.122314" target-width="35.299866" target-x="643.7472" target-y="651.46063"></path><path d="M 684.93 648.01 L 686.00 648.96 L 687.01 650.06 L 688.32 651.86 L 689.47 653.98 L 690.51 656.83 L 691.13 660.01 L 691.24 664.01 L 691.44 666.70 L 692.41 670.80 L 693.85 675.21 L 695.87 680.48 L 700.72 691.59 L 706.05 702.73 L 710.98 712.45 L 714.59 719.33 L 716.00 721.94 L 689.57 732.02 L 688.73 729.12 L 686.62 721.95 L 683.88 712.80 L 681.12 703.96 L 678.96 697.73 L 676.94 692.57 L 674.03 684.31 L 672.55 679.43 L 671.14 674.00 L 669.97 668.42 L 669.13 662.70 L 668.74 656.97 L 668.91 651.46 L 670.21 650.72 L 673.71 649.21 L 676.03 648.50 L 678.81 647.95 L 681.74 647.75 L 684.93 648.01 Z" fill="#3e65a3" fill-rule="nonzero" group-id="2,3" id="Path" node-id="132" stroke-linecap="butt" stroke-width="1" target-height="84.26807" target-width="47.256897" target-x="668.7431" target-y="647.75476"></path><path d="M 641.73 627.56 L 641.09 628.59 L 639.46 630.91 L 637.27 633.37 L 636.06 634.32 L 634.97 634.81 L 633.63 634.87 L 631.27 634.50 L 625.84 633.05 L 620.53 631.37 L 617.18 630.35 L 616.45 629.95 L 615.90 629.18 L 615.11 627.22 L 614.69 626.26 L 614.18 625.57 L 613.50 625.22 L 612.46 625.36 L 611.03 626.14 L 609.98 627.12 L 609.24 628.32 L 608.78 629.67 L 608.63 631.00 L 608.77 632.32 L 609.16 633.43 L 609.64 634.03 L 610.27 634.41 L 610.97 634.59 L 612.46 634.81 L 615.24 635.98 L 620.82 638.43 L 627.71 641.19 L 631.26 642.40 L 634.43 643.27 L 637.42 643.76 L 639.47 643.68 L 641.71 642.89 L 643.83 641.57 L 645.76 639.91 L 647.41 638.15 L 649.84 634.97 L 650.72 633.57 L 650.02 632.62 L 648.09 630.53 L 646.77 629.43 L 645.23 628.45 L 643.55 627.79 L 641.73 627.56 Z" fill="#fecca9" fill-rule="nonzero" group-id="2,3" id="Path" node-id="133" stroke-linecap="butt" stroke-width="1" target-height="18.534851" target-width="42.095703" target-x="608.62897" target-y="625.22253"></path><path d="M 645.38 626.30 L 645.92 627.46 L 646.73 628.33 L 648.56 630.05 L 649.26 631.18 L 649.68 632.95 L 649.95 634.58 L 650.36 635.84 L 651.09 637.16 L 651.95 638.12 L 652.96 638.87 L 654.02 639.38 L 655.88 639.91 L 657.50 640.16 L 658.94 640.39 L 659.56 640.68 L 660.26 641.77 L 660.66 643.01 L 660.76 644.45 L 660.51 646.67 L 659.86 649.07 L 658.11 653.59 L 656.76 657.08 L 656.60 657.96 L 656.73 658.39 L 657.05 658.58 L 658.26 658.47 L 660.69 657.85 L 666.50 655.93 L 672.52 653.92 L 675.18 653.19 L 676.78 652.93 L 680.67 652.44 L 683.13 651.91 L 685.72 651.13 L 688.18 650.11 L 690.19 648.88 L 691.30 647.86 L 692.01 646.76 L 692.36 645.55 L 690.68 644.38 L 688.79 643.33 L 684.90 641.17 L 683.07 639.84 L 681.41 638.17 L 680.09 636.14 L 679.06 633.41 L 676.39 623.73 L 674.82 619.49 L 673.04 616.06 L 671.57 614.06 L 669.88 612.47 L 667.94 611.25 L 665.80 610.46 L 663.19 610.08 L 660.00 610.17 L 657.73 610.62 L 655.62 611.38 L 653.64 612.44 L 650.97 614.45 L 648.75 616.78 L 646.98 619.37 L 645.83 621.86 L 645.36 623.58 L 645.23 625.04 L 645.38 626.30 Z" fill="#53a4fc" fill-rule="nonzero" group-id="2,3" id="Path" node-id="134" stroke-linecap="butt" stroke-width="1" target-height="48.497253" target-width="47.136475" target-x="645.2278" target-y="610.0805"></path><path d="M 650.36 635.84 L 651.09 637.16 L 651.95 638.12 L 652.96 638.87 L 654.02 639.38 L 656.48 634.25 L 658.05 629.78 L 659.12 625.54 L 659.61 622.60 L 659.87 619.78 L 650.36 635.84 Z" fill="#096dd9" fill-rule="nonzero" group-id="2,3" id="Path" node-id="135" stroke-linecap="butt" stroke-width="1" target-height="19.6073" target-width="9.510986" target-x="650.36163" target-y="619.77734"></path><path d="M 651.87 614.44 L 651.00 614.63 L 650.01 615.17 L 648.86 616.20 L 647.29 618.00 L 645.63 620.23 L 642.60 624.57 L 641.18 626.36 L 640.20 627.24 L 640.13 627.65 L 640.94 628.79 L 643.91 631.55 L 647.52 634.40 L 650.19 636.18 L 650.74 636.26 L 651.41 636.04 L 652.29 635.37 L 653.49 634.06 L 654.85 632.21 L 657.28 628.23 L 658.96 624.93 L 660.11 621.94 L 660.42 620.20 L 660.31 618.51 L 659.94 617.48 L 659.22 616.54 L 658.07 615.67 L 656.72 615.09 L 654.73 614.65 L 651.87 614.44 Z" fill="#40a9ff" fill-rule="nonzero" group-id="2,3" id="Path" node-id="136" stroke-linecap="butt" stroke-width="1" target-height="21.825806" target-width="20.286255" target-x="640.13293" target-y="614.4355"></path><path d="M 566.62 670.26 L 532.45 652.12 L 531.34 651.42 L 530.33 650.59 L 526.38 647.43 L 522.05 644.78 L 556.22 662.90 L 560.56 665.56 L 564.52 668.73 L 565.52 669.56 L 566.62 670.26 L 566.62 670.26 Z" fill="url(#linearGradient-5)" fill-rule="nonzero" group-id="2,4" id="路径" node-id="138" stroke-linecap="butt" stroke-width="1" target-height="25.479431" target-width="44.56836" target-x="522.05035" target-y="644.7808"></path><path d="M 566.62 670.26 L 532.45 652.12 L 531.34 651.42 L 530.33 650.59 L 526.38 647.43 L 522.05 644.78 L 556.22 662.90 L 560.56 665.56 L 564.52 668.73 L 565.52 669.56 L 566.62 670.26" fill="url(#linearGradient-5)" fill-rule="nonzero" group-id="2,4" id="路径" node-id="139" stroke-linecap="butt" stroke-width="1" target-height="25.479431" target-width="44.56836" target-x="522.05035" target-y="644.7808"></path><path d="M 638.27 484.57 L 604.82 466.42 L 606.64 467.34 L 609.53 468.44 L 612.60 469.22 L 615.70 469.96 L 618.68 470.90 L 620.21 471.61 L 653.63 489.78 L 652.12 489.07 L 649.14 488.11 L 646.04 487.37 L 642.96 486.59 L 640.06 485.51 L 638.27 484.57 Z" fill="url(#linearGradient-6)" fill-rule="nonzero" group-id="2,4" id="路径" node-id="140" stroke-linecap="butt" stroke-width="1" target-height="23.35617" target-width="48.812927" target-x="604.8201" target-y="466.42465"></path><path d="M 605.28 465.60 L 606.78 466.34 L 641.15 484.18 L 639.65 483.43 L 605.28 465.60 Z" fill="url(#linearGradient-7)" fill-rule="nonzero" group-id="2,4,6" node-id="412" stroke-linecap="butt" stroke-width="1" target-height="18.576813" target-width="35.872986" target-x="605.28094" target-y="465.5985"></path><path d="M 645.69 485.75 L 611.32 467.89 L 616.34 468.93 L 650.73 487.66 L 649.64 487.42 L 649.19 487.32 L 648.52 487.04" fill="url(#linearGradient-8)" fill-rule="nonzero" group-id="2,4,6" node-id="414" stroke-linecap="butt" stroke-width="1" target-height="19.771759" target-width="39.40454" target-x="611.32043" target-y="467.89166"></path><path d="M 650.20 487.50 L 616.34 468.93 L 619.52 469.91 L 620.54 470.35 L 655.56 489.78 L 654.01 488.88 L 652.01 488.18 L 650.47 487.50 L 650.20 487.50 Z" fill="url(#linearGradient-9)" fill-rule="nonzero" group-id="2,4,6" node-id="416" stroke-linecap="butt" stroke-width="1" target-height="20.846832" target-width="39.219727" target-x="616.3412" target-y="468.934"></path><path d="M 654.91 488.28 L 620.54 470.44 L 621.10 470.69 L 655.44 488.55 L 654.91 488.28" fill="url(#linearGradient-10)" fill-rule="nonzero" group-id="2,4,6" node-id="418" stroke-linecap="butt" stroke-width="1" target-height="18.113556" target-width="34.90277" target-x="620.5373" target-y="470.4396"></path><path d="M 579.33 558.93 L 581.11 554.63 L 581.26 554.22 L 581.26 553.98 L 581.81 552.33 L 582.30 550.92 L 582.80 549.24 L 583.24 547.78 L 583.67 546.06 L 584.01 544.63 L 584.39 542.86 L 584.68 541.42 L 584.97 539.58 L 585.19 538.17 L 585.41 536.21 L 585.50 535.47 L 585.57 534.89 L 585.72 532.74 L 585.72 531.57 L 585.72 528.24 L 585.49 522.83 L 584.84 517.71 L 583.81 512.86 L 582.40 508.25 L 580.57 503.73 L 578.42 499.54 L 575.96 495.64 L 573.18 492.02 L 570.07 488.66 L 566.71 485.65 L 563.09 482.97 L 559.20 480.62 L 525.06 462.18 L 528.96 464.53 L 532.58 467.20 L 535.94 470.21 L 539.05 473.57 L 541.83 477.19 L 544.29 481.09 L 546.44 485.28 L 548.27 489.79 L 549.68 494.41 L 550.71 499.26 L 551.35 504.38 L 551.58 509.80 L 551.58 513.15 L 551.58 514.30 L 551.44 516.45 L 551.29 517.77 L 551.05 519.75 L 550.94 520.53 L 550.84 521.14 L 550.55 522.98 L 550.26 524.42 L 549.90 526.21 L 549.53 527.64 L 549.10 529.37 L 548.67 530.80 L 548.18 532.48 L 547.70 533.91 L 547.12 535.54 L 546.88 536.18 L 545.10 540.49 L 544.91 540.94 L 542.78 545.23 L 542.33 546.09 L 540.30 549.55 L 540.30 549.70 L 538.18 552.90 L 537.53 553.84 L 535.82 556.23 L 535.24 556.97 L 532.83 559.82 L 532.32 560.37 L 530.25 562.54 L 529.43 563.36 L 527.35 565.32 L 526.70 565.92 L 523.74 568.31 L 523.04 568.86 L 520.48 570.72 L 519.71 571.25 L 515.78 573.64 L 515.06 574.05 L 510.89 576.20 L 510.19 576.51 L 507.23 577.78 L 506.31 578.14 L 502.62 579.38 L 502.11 579.53 L 498.79 580.39 L 497.77 580.63 L 493.89 581.32 L 491.56 581.58 L 489.07 581.77 L 487.58 581.77 L 484.25 581.77 L 482.59 581.77 L 479.43 581.44 L 477.93 581.25 L 473.98 580.43 L 473.50 580.43 L 469.21 579.10 L 467.95 578.62 L 465.04 577.37 L 462.63 576.18 L 496.79 594.59 L 498.55 595.50 L 499.25 595.81 L 502.16 597.06 L 503.39 597.54 L 507.71 598.88 L 507.71 598.88 L 508.14 598.88 L 512.09 599.69 L 513.59 599.88 L 516.75 600.19 L 518.41 600.19 L 521.74 600.19 L 523.23 600.19 L 525.67 600.05 L 528.05 599.74 L 530.10 599.40 L 531.94 599.04 L 532.97 598.80 L 536.30 597.94 L 536.81 597.80 L 540.47 596.56 L 541.41 596.17 L 544.37 594.93 L 544.91 594.71 L 545.07 594.71 L 549.24 592.56 L 549.97 592.13 L 553.90 589.74 L 554.16 589.57 L 554.67 589.21 L 557.08 587.35 L 557.80 586.80 L 560.77 584.41 L 560.94 584.26 L 561.42 583.81 L 563.49 581.85 L 564.31 581.03 L 566.36 578.83 L 566.77 578.43 L 566.77 578.28 L 569.18 575.44 L 569.74 574.69 L 571.47 572.30 L 571.83 571.82 L 572.12 571.39 L 574.24 568.19 L 574.24 568.04 L 576.27 564.55 L 576.51 564.15 L 576.73 563.72 L 578.85 559.43 L 579.33 558.93 Z" fill="url(#linearGradient-11)" fill-rule="nonzero" group-id="2,4" id="路径" node-id="146" stroke-linecap="butt" stroke-width="1" target-height="138.01367" target-width="123.093506" target-x="462.62592" target-y="462.1781"></path><path d="M 459.82 672.92 L 426.35 655.70 L 420.93 652.51 L 415.74 648.99 L 410.77 645.12 L 408.94 642.95 L 407.45 640.53 L 441.60 659.31 L 443.09 661.73 L 444.91 663.90 L 447.35 665.78 L 449.70 667.35 L 454.58 670.13 L 459.82 672.92 Z" fill="url(#linearGradient-12)" fill-rule="nonzero" group-id="2,4" id="路径" node-id="147" stroke-linecap="butt" stroke-width="1" target-height="32.38446" target-width="52.37146" target-x="407.44604" target-y="640.53424"></path><path d="M 426.35 655.70 L 420.93 652.51 L 415.74 648.99 L 410.77 645.12 L 408.82 643.31 L 407.95 642.39 L 407.20 641.26 L 441.34 658.27 L 442.15 659.57 L 443.27 661.01 L 445.53 663.50 L 453.01 668.70 L 456.71 671.07 L 460.71 673.39 L 426.35 655.70 Z" fill="url(#linearGradient-13)" fill-rule="nonzero" group-id="2,4" id="路径" node-id="148" stroke-linecap="butt" stroke-width="1" target-height="32.135498" target-width="53.51422" target-x="407.19745" target-y="641.25793"></path><path d="M 386.22 576.84 L 420.00 595.22 L 423.89 597.76 L 427.44 600.65 L 430.68 603.90 L 433.57 607.47 L 436.06 611.32 L 438.16 615.47 L 440.25 620.42 L 441.82 625.51 L 442.88 630.74 L 443.43 636.15 L 443.49 641.54 L 443.12 647.24 L 442.30 653.26 L 440.97 659.64 L 407.20 641.26 L 408.52 634.91 L 409.35 628.91 L 409.72 623.22 L 409.66 617.82 L 409.11 612.41 L 408.06 607.16 L 406.49 602.05 L 404.41 597.06 L 402.31 592.91 L 399.82 589.06 L 396.93 585.49 L 393.68 582.24 L 390.12 579.36 L 386.22 576.84 Z" fill="url(#linearGradient-14)" fill-rule="nonzero" group-id="2,4" id="路径" node-id="149" stroke-linecap="butt" stroke-width="1" target-height="82.80817" target-width="57.26935" target-x="386.22302" target-y="576.83563"></path><path d="M 407.20 641.26 L 408.52 634.91 L 409.35 628.91 L 409.72 623.22 L 409.66 617.82 L 409.11 612.41 L 408.06 607.16 L 406.49 602.05 L 404.41 597.06 L 402.31 592.91 L 399.82 589.06 L 396.93 585.49 L 393.68 582.24 L 390.12 579.36 L 386.22 576.84 L 420.87 593.91 L 424.74 596.47 L 428.24 599.42 L 431.41 602.76 L 434.22 606.41 L 436.65 610.32 L 438.73 614.49 L 440.82 619.45 L 442.38 624.59 L 443.43 629.94 L 443.95 635.52 L 443.96 641.07 L 443.49 646.92 L 442.50 653.10 L 440.97 659.64 L 407.20 641.26 Z" fill="url(#linearGradient-15)" fill-rule="nonzero" group-id="2,4" id="路径" node-id="150" stroke-linecap="butt" stroke-width="1" target-height="82.80817" target-width="57.73471" target-x="386.22302" target-y="576.83563"></path><path d="M 575.00 391.62 L 580.03 393.31 L 581.56 393.87 L 585.03 395.23 L 586.71 395.94 L 590.11 397.45 L 591.54 398.12 L 596.33 400.48 L 562.43 382.22 L 558.27 380.11 L 557.72 379.85 L 556.28 379.19 L 552.88 377.67 L 551.20 376.96 L 547.76 375.64 L 546.22 375.07 L 541.17 373.36 L 540.53 373.20 L 539.76 373.05 L 539.21 373.05 L 537.70 373.05 L 536.36 373.43 L 536.36 373.43 L 535.52 373.91 L 535.36 374.05 L 535.12 374.24 L 534.76 374.52 L 534.23 375.07 L 533.97 375.33 L 532.89 376.68 L 530.78 379.38 L 530.09 380.21 L 529.46 380.96 L 528.63 381.94 L 528.01 382.60 L 526.11 384.59 L 525.25 385.47 L 523.48 387.12 L 522.64 387.91 L 519.99 390.11 L 519.87 390.11 L 517.02 392.19 L 516.30 392.69 L 512.97 394.77 L 512.73 394.92 L 509.16 396.76 L 508.35 397.14 L 505.69 398.28 L 505.26 398.45 L 502.17 399.51 L 501.31 399.75 L 498.92 400.37 L 498.01 400.58 L 494.87 401.12 L 493.05 401.33 L 491.07 401.48 L 487.21 401.48 L 485.89 401.48 L 483.29 401.19 L 482.09 401.05 L 478.52 400.32 L 478.38 400.32 L 474.74 399.18 L 473.66 398.75 L 471.15 397.69 L 468.99 396.65 L 502.92 414.89 L 504.45 415.69 L 505.07 415.95 L 507.46 416.99 L 508.57 417.44 L 512.20 418.56 L 512.35 418.56 L 515.92 419.27 L 517.09 419.43 L 519.72 419.69 L 521.04 419.69 L 523.70 419.69 L 524.89 419.69 L 526.80 419.61 L 528.70 419.34 L 531.84 418.77 L 532.75 418.58 L 535.14 417.97 L 535.98 417.70 L 539.07 416.66 L 539.52 416.47 L 542.15 415.36 L 542.59 415.19 L 542.99 414.98 L 546.56 413.13 L 546.80 412.97 L 550.13 410.88 L 550.56 410.62 L 550.84 410.41 L 553.69 408.32 L 553.69 408.32 L 556.33 406.12 L 556.66 405.86 L 557.19 405.36 L 558.96 403.68 L 559.82 402.83 L 561.71 400.84 L 562.19 400.32 L 562.34 400.15 L 563.80 398.45 L 564.49 397.62 L 566.57 394.92 L 567.77 393.45 L 568.03 393.19 L 568.92 392.36 L 569.16 392.19 L 570.21 391.55 L 571.58 391.15 L 573.08 391.15 L 573.64 391.15 L 575.00 391.62 L 575.00 391.62 Z" fill="url(#linearGradient-16)" fill-rule="nonzero" group-id="2,4" id="路径" node-id="151" stroke-linecap="butt" stroke-width="1" target-height="46.64145" target-width="127.338135" target-x="468.9928" target-y="373.0532"></path><path d="M 368.38 571.01 L 366.98 569.90 L 365.97 568.47 L 365.40 566.82 L 365.31 565.02 L 365.03 538.55 L 365.14 512.05 L 365.38 511.11 L 366.15 509.90 L 367.19 508.74 L 368.45 507.61 L 369.81 506.63 L 371.00 505.96 L 376.27 503.31 L 381.10 500.39 L 385.50 497.19 L 389.52 493.71 L 393.17 489.96 L 396.47 485.90 L 399.95 480.70 L 402.96 475.08 L 405.48 469.03 L 407.53 462.48 L 409.08 455.40 L 409.65 450.63 L 409.76 445.78 L 409.50 440.92 L 408.97 436.06 L 407.46 426.51 L 407.09 424.03 L 407.05 421.94 L 407.28 420.17 L 407.88 418.53 L 408.98 416.89 L 410.70 415.22 L 447.82 385.49 L 449.55 384.32 L 451.51 383.66 L 452.99 383.70 L 454.37 384.21 L 488.09 402.78 L 486.71 402.24 L 485.24 402.20 L 483.28 402.88 L 481.55 404.05 L 444.40 433.83 L 442.67 435.49 L 441.57 437.13 L 440.97 438.77 L 440.74 440.55 L 440.78 442.64 L 441.14 445.12 L 442.67 454.58 L 443.21 459.42 L 443.46 464.30 L 443.35 469.17 L 442.78 474.01 L 441.24 481.09 L 439.21 487.63 L 436.69 493.68 L 433.70 499.30 L 430.23 504.50 L 426.94 508.55 L 423.29 512.31 L 419.27 515.79 L 414.85 518.99 L 410.00 521.92 L 404.70 524.57 L 403.48 525.23 L 402.13 526.20 L 400.87 527.33 L 399.84 528.49 L 399.09 529.71 L 398.84 530.66 L 398.71 543.93 L 398.75 557.17 L 399.01 583.63 L 399.12 585.42 L 399.70 587.06 L 400.71 588.47 L 402.10 589.58 L 368.38 571.01 Z" fill="url(#linearGradient-17)" fill-rule="nonzero" group-id="2,4" id="路径" node-id="152" stroke-linecap="butt" stroke-width="1" target-height="205.91449" target-width="123.06467" target-x="365.02887" target-y="383.66083"></path><path d="M 372.59 505.16 L 371.07 505.83 L 370.92 505.83 L 369.38 506.74 L 367.72 508.05 L 366.57 509.20 L 365.89 510.04 L 365.51 510.64 L 365.29 511.14 L 365.14 511.81 L 365.01 525.02 L 365.05 538.19 L 365.31 564.50 L 365.40 566.29 L 365.98 567.94 L 367.00 569.36 L 368.42 570.46 L 402.54 588.93 L 401.12 587.82 L 400.11 586.40 L 399.53 584.76 L 399.43 582.97 L 399.15 556.63 L 399.27 530.28 L 399.39 529.61 L 399.63 529.10 L 400.01 528.51 L 400.66 527.67 L 401.84 526.49 L 403.48 525.20 L 405.04 524.29 L 405.19 524.29 L 406.68 523.62 L 372.59 505.16 Z" fill="url(#linearGradient-18)" fill-rule="nonzero" group-id="2,4,7" node-id="429" stroke-linecap="butt" stroke-width="1" target-height="83.77258" target-width="41.66742" target-x="365.015" target-y="505.15613"></path><path d="M 442.06 445.36 L 441.62 442.96 L 441.62 440.57 L 442.06 438.17 L 408.01 419.78 L 407.56 422.18 L 407.56 424.56 L 408.01 426.96 L 409.50 436.43 L 410.00 441.28 L 410.22 446.16 L 410.08 451.04 L 409.48 455.86 L 408.60 460.43 L 407.44 464.91 L 406.01 469.33 L 404.18 473.77 L 402.06 478.07 L 399.65 482.15 L 396.95 486.03 L 393.94 489.71 L 391.60 492.24 L 389.13 494.64 L 385.90 497.12 L 382.52 499.41 L 377.67 502.49 L 372.59 505.16 L 406.85 523.79 L 412.00 521.13 L 416.92 518.06 L 420.15 515.67 L 423.23 513.08 L 425.71 510.69 L 428.04 508.15 L 430.22 505.55 L 432.26 502.83 L 434.30 499.74 L 436.16 496.53 L 438.28 492.22 L 440.11 487.77 L 442.23 481.05 L 443.74 474.17 L 444.30 469.34 L 444.40 464.47 L 444.14 459.61 L 443.60 454.78 L 442.06 445.36 Z" fill="url(#linearGradient-19)" fill-rule="nonzero" group-id="2,4,7" node-id="431" stroke-linecap="butt" stroke-width="1" target-height="104.00922" target-width="71.816284" target-x="372.58517" target-y="419.779"></path><path d="M 410.54 416.23 L 409.60 417.19 L 408.95 417.98 L 408.44 418.80 L 408.01 419.78 L 442.06 438.24 L 442.49 437.26 L 443.00 436.45 L 443.65 435.63 L 444.58 434.70 L 410.54 416.23 Z" fill="url(#linearGradient-20)" fill-rule="nonzero" group-id="2,4,7" node-id="433" stroke-linecap="butt" stroke-width="1" target-height="22.00888" target-width="36.577454" target-x="408.00684" target-y="416.23456"></path><path d="M 444.66 434.70 L 410.54 416.23 L 411.21 415.66 L 448.80 386.01 L 449.50 385.51 L 483.62 403.95 L 482.92 404.48 L 445.33 434.10 L 444.66 434.68" fill="url(#linearGradient-21)" fill-rule="nonzero" group-id="2,4,7" node-id="435" stroke-linecap="butt" stroke-width="1" target-height="49.190674" target-width="73.0827" target-x="410.53522" target-y="385.50836"></path><path d="M 483.62 403.97 L 449.50 385.53 L 450.87 384.72 L 484.99 403.18 L 483.62 403.97" fill="url(#linearGradient-22)" fill-rule="nonzero" group-id="2,4,7" node-id="437" stroke-linecap="butt" stroke-width="1" target-height="19.25476" target-width="35.493866" target-x="449.4966" target-y="384.71808"></path><path d="M 484.99 403.18 L 450.87 384.72 L 452.53 384.22 L 453.40 384.13 L 454.26 384.22 L 488.36 402.78 L 487.51 402.69 L 486.65 402.78 L 484.99 403.30" fill="url(#linearGradient-23)" fill-rule="nonzero" group-id="2,4,7" node-id="439" stroke-linecap="butt" stroke-width="1" target-height="19.176758" target-width="37.492493" target-x="450.86917" target-y="384.12552"></path><path d="M 488.36 402.78 L 454.26 384.33 L 455.20 384.67 L 489.32 403.13 L 488.36 402.78" fill="url(#linearGradient-24)" fill-rule="nonzero" group-id="2,4,7" node-id="441" stroke-linecap="butt" stroke-width="1" target-height="18.799713" target-width="35.060425" target-x="454.26443" target-y="384.3349"></path><path d="M 489.32 403.11 L 455.20 384.65 L 455.42 384.65 L 489.54 403.11 L 489.32 403.11" fill="url(#linearGradient-25)" fill-rule="nonzero" group-id="2,4,7" node-id="443" stroke-linecap="butt" stroke-width="1" target-height="18.464478" target-width="34.338043" target-x="455.20355" target-y="384.6462"></path><path d="M 658.10 493.00 L 659.15 501.86 L 659.78 510.78 L 660.00 519.79 L 659.82 526.52 L 659.28 533.32 L 658.36 540.19 L 657.07 547.14 L 656.20 549.31 L 654.96 551.25 L 653.39 552.94 L 651.51 554.32 L 646.61 556.96 L 642.01 559.97 L 637.71 563.36 L 633.68 567.15 L 629.97 571.25 L 626.63 575.60 L 623.64 580.19 L 621.01 585.05 L 618.76 590.11 L 616.95 595.26 L 615.57 600.54 L 614.61 605.94 L 614.11 611.40 L 614.11 616.83 L 614.60 622.26 L 615.59 627.71 L 615.99 629.71 L 616.01 631.66 L 615.65 633.59 L 614.93 635.42 L 613.88 637.07 L 612.48 638.55 L 606.61 644.49 L 600.47 650.11 L 594.04 655.42 L 587.36 660.39 L 580.43 665.01 L 573.26 669.28 L 571.25 670.29 L 569.09 670.91 L 567.50 670.88 L 565.98 670.49 L 564.60 669.75 L 563.42 668.69 L 560.19 666.00 L 556.77 663.70 L 553.15 661.76 L 549.35 660.18 L 545.45 659.00 L 541.42 658.20 L 537.33 657.81 L 533.21 657.83 L 529.03 658.27 L 523.97 659.33 L 519.13 660.81 L 514.47 662.73 L 509.98 665.08 L 505.72 667.84 L 501.77 670.96 L 498.09 674.45 L 494.69 678.33 L 493.36 679.96 L 491.77 681.28 L 489.96 682.28 L 487.96 682.93 L 485.82 682.95 L 483.72 682.52 L 476.66 680.37 L 469.81 677.76 L 463.15 674.68 L 456.71 671.14 L 450.54 667.18 L 444.62 662.77 L 442.82 660.64 L 441.34 658.27 L 442.67 651.91 L 443.50 645.90 L 443.87 640.20 L 443.81 634.79 L 443.26 629.36 L 442.19 624.10 L 440.62 618.99 L 438.51 613.99 L 435.71 608.83 L 432.59 604.33 L 429.16 600.43 L 425.42 597.09 L 422.14 594.78 L 418.60 592.84 L 414.77 591.26 L 410.62 590.04 L 406.12 589.19 L 404.05 588.78 L 402.41 588.10 L 401.13 587.20 L 400.17 586.00 L 399.53 584.36 L 399.27 582.13 L 398.99 555.81 L 399.10 529.47 L 399.34 528.53 L 400.11 527.31 L 401.16 526.16 L 402.43 525.04 L 403.79 524.07 L 404.99 523.42 L 410.30 520.78 L 415.16 517.87 L 419.60 514.69 L 423.64 511.23 L 427.31 507.49 L 430.62 503.46 L 434.13 498.28 L 437.15 492.70 L 439.69 486.68 L 441.75 480.18 L 443.30 473.15 L 443.88 468.40 L 443.99 463.58 L 443.73 458.74 L 443.19 453.91 L 441.65 444.43 L 441.29 441.96 L 441.25 439.88 L 441.49 438.12 L 442.08 436.48 L 443.20 434.85 L 444.93 433.20 L 482.31 403.59 L 484.05 402.43 L 486.02 401.75 L 487.57 401.85 L 489.00 402.33 L 490.28 403.14 L 491.34 404.26 L 494.68 407.73 L 498.29 410.74 L 502.21 413.32 L 506.38 415.44 L 510.73 417.08 L 515.27 418.24 L 519.91 418.90 L 524.61 419.03 L 529.41 418.63 L 534.49 417.62 L 539.53 416.02 L 544.55 413.80 L 549.60 410.92 L 554.26 407.61 L 558.77 403.69 L 563.15 399.12 L 567.39 393.83 L 568.33 392.50 L 569.50 391.41 L 570.87 390.57 L 572.39 390.02 L 574.15 390.05 L 575.87 390.45 L 583.04 392.92 L 590.00 395.84 L 596.75 399.21 L 603.27 403.01 L 609.52 407.23 L 615.52 411.88 L 616.89 413.38 L 617.53 414.80 L 617.70 416.33 L 617.51 417.94 L 616.60 421.31 L 615.45 426.28 L 614.70 431.18 L 614.34 436.02 L 614.37 440.82 L 614.77 445.62 L 615.52 450.25 L 616.61 454.71 L 618.05 459.03 L 619.84 463.24 L 621.94 467.16 L 624.33 470.83 L 627.02 474.25 L 630.03 477.40 L 633.30 480.20 L 636.85 482.65 L 640.69 484.76 L 643.63 485.86 L 646.75 486.65 L 649.90 487.40 L 652.92 488.38 L 654.55 489.19 L 656.18 490.28 L 657.49 491.61 L 658.10 493.00 Z M 528.79 598.98 L 533.59 598.08 L 538.22 596.81 L 542.71 595.17 L 547.07 593.16 L 552.62 589.96 L 557.83 586.23 L 562.73 581.94 L 567.22 577.21 L 571.29 572.06 L 574.95 566.47 L 578.11 560.57 L 580.75 554.38 L 582.89 547.85 L 584.44 541.17 L 585.39 534.31 L 585.72 527.23 L 585.24 520.83 L 584.25 514.93 L 582.79 509.49 L 580.88 504.47 L 578.43 499.60 L 575.60 495.19 L 572.39 491.20 L 568.77 487.59 L 564.79 484.39 L 560.49 481.61 L 555.84 479.25 L 550.82 477.31 L 545.68 475.86 L 540.26 474.87 L 534.53 474.34 L 528.45 474.30 L 526.92 474.49 L 522.25 475.38 L 517.71 476.65 L 513.29 478.30 L 508.97 480.35 L 503.49 483.58 L 498.32 487.35 L 493.43 491.69 L 488.95 496.44 L 484.89 501.58 L 481.24 507.11 L 478.07 512.94 L 475.43 518.97 L 473.31 525.23 L 471.77 531.64 L 470.86 538.10 L 470.58 544.63 L 470.95 551.18 L 471.87 557.30 L 473.31 563.03 L 475.25 568.41 L 477.75 573.62 L 480.65 578.35 L 483.95 582.64 L 487.66 586.53 L 491.78 589.99 L 496.21 592.92 L 500.96 595.35 L 506.07 597.28 L 511.32 598.62 L 516.82 599.36 L 522.60 599.49 L 528.72 598.98" fill="url(#linearGradient-26)" fill-rule="nonzero" group-id="2,4" id="形状" node-id="162" stroke-linecap="butt" stroke-width="1" target-height="292.93152" target-width="261.01166" target-x="398.9859" target-y="390.02307"></path></svg>